<?xml version="1.0" encoding="utf-8" standalone="no"?>
<!DOCTYPE svg PUBLIC "-//W3C//DTD SVG 1.1//EN"
  "http://www.w3.org/Graphics/SVG/1.1/DTD/svg11.dtd">
<!-- Created with matplotlib (https://matplotlib.org/) -->
<svg height="720pt" version="1.1" viewBox="0 0 864 720" width="864pt" xmlns="http://www.w3.org/2000/svg" xmlns:xlink="http://www.w3.org/1999/xlink">
 <defs>
  <style type="text/css">
*{stroke-linecap:butt;stroke-linejoin:round;}
  </style>
 </defs>
 <g id="figure_1">
  <g id="patch_1">
   <path d="M 0 720 
L 864 720 
L 864 0 
L 0 0 
z
" style="fill:#ffffff;"/>
  </g>
  <g id="axes_1">
   <g id="patch_2">
    <path d="M 108 630 
L 777.6 630 
L 777.6 86.4 
L 108 86.4 
z
" style="fill:#ffffff;"/>
   </g>
   <g id="patch_3">
    <path clip-path="url(#p8a2c013504)" d="M 283.77 216.122727 
L 279.585 219.211364 
L 279.585 216.431591 
L 262.845 216.431591 
L 262.845 215.813864 
L 279.585 215.813864 
L 279.585 213.034091 
z
" style="stroke:#000000;stroke-linejoin:miter;"/>
   </g>
   <g id="patch_4">
    <path clip-path="url(#p8a2c013504)" d="M 622.755 474.800278 
L 624.8475 490.243459 
L 623.1735 490.243459 
L 623.1735 585.991187 
L 622.3365 585.991187 
L 622.3365 490.243459 
L 620.6625 490.243459 
z
" style="stroke:#000000;stroke-linejoin:miter;"/>
   </g>
   <g id="patch_5">
    <path clip-path="url(#p8a2c013504)" d="M 622.755 375.655525 
L 624.8475 391.098707 
L 623.1735 391.098707 
L 623.1735 443.605525 
L 622.3365 443.605525 
L 622.3365 391.098707 
L 620.6625 391.098707 
z
" style="stroke:#000000;stroke-linejoin:miter;"/>
   </g>
   <g id="matplotlib.axis_1">
    <g id="xtick_1"/>
    <g id="xtick_2"/>
    <g id="xtick_3"/>
    <g id="xtick_4"/>
    <g id="xtick_5"/>
    <g id="xtick_6"/>
    <g id="xtick_7"/>
    <g id="xtick_8"/>
    <g id="xtick_9"/>
   </g>
   <g id="matplotlib.axis_2">
    <g id="ytick_1"/>
    <g id="ytick_2"/>
    <g id="ytick_3"/>
    <g id="ytick_4"/>
    <g id="ytick_5"/>
    <g id="ytick_6"/>
    <g id="ytick_7"/>
    <g id="ytick_8"/>
    <g id="ytick_9"/>
   </g>
   <g id="line2d_1">
    <path clip-path="url(#p8a2c013504)" d="M 209.818653 -1 
L 214.824324 16.189257 
L 219.851351 32.783284 
L 224.878378 48.687812 
L 229.905405 63.927776 
L 234.932432 78.530254 
L 239.959459 92.520043 
L 244.986486 105.920013 
L 250.013514 118.75138 
L 255.040541 131.033927 
L 260.067568 142.786182 
L 265.094595 154.028575 
L 270.121622 164.792567 
L 275.148649 175.105345 
L 280.175676 184.990984 
L 285.202703 194.471222 
L 290.22973 203.565773 
L 296.513514 214.418793 
L 302.797297 224.731623 
L 309.081081 234.541397 
L 315.364865 243.881045 
L 321.648649 252.779891 
L 327.932432 261.264235 
L 334.216216 269.359654 
L 340.5 277.090854 
L 346.783784 284.48002 
L 353.067568 291.547189 
L 359.351351 298.311419 
L 365.635135 304.790799 
L 373.175676 312.21306 
L 380.716216 319.27476 
L 388.256757 326.000304 
L 395.797297 332.411716 
L 403.337838 338.529404 
L 410.878378 344.37215 
L 418.418919 349.957151 
L 425.959459 355.300384 
L 434.756757 361.248129 
L 443.554054 366.908102 
L 452.351351 372.299884 
L 461.148649 377.441426 
L 469.945946 382.34913 
L 480 387.690422 
L 490.054054 392.76626 
L 500.108108 397.597797 
L 510.162162 402.199152 
L 521.472973 407.119769 
L 532.783784 411.789259 
L 544.094595 416.226033 
L 556.662162 420.902803 
L 569.22973 425.332687 
L 581.797297 429.534704 
L 595.621622 433.914898 
L 609.445946 438.059484 
L 624.527027 442.33343 
L 639.608108 446.369793 
L 655.945946 450.496264 
L 672.283784 454.387587 
L 689.878378 458.337207 
L 707.472973 462.057744 
L 726.324324 465.811429 
L 745.175676 469.34485 
L 765.283784 472.891929 
L 786.648649 476.431575 
L 809.27027 479.945227 
L 833.148649 483.416806 
L 857.027027 486.667277 
L 865 487.706883 
L 865 487.706883 
" style="fill:none;stroke:#000000;stroke-linecap:square;stroke-width:1.5;"/>
   </g>
   <g id="line2d_2">
    <path clip-path="url(#p8a2c013504)" d="M 203.970747 -1 
L 209.797297 16.426813 
L 214.824324 30.854114 
L 219.851351 44.714684 
L 224.878378 58.007142 
L 229.905405 70.733584 
L 234.932432 82.89875 
L 239.959459 94.512551 
L 244.986486 105.603331 
L 250.013514 116.19864 
L 255.040541 126.322827 
L 260.067568 135.99794 
L 265.094595 145.244067 
L 270.121622 154.079603 
L 275.148649 162.521609 
L 280.175676 170.590973 
L 285.202703 178.309977 
L 290.22973 185.698133 
L 296.513514 194.494797 
L 302.797297 202.83291 
L 309.081081 210.740854 
L 315.364865 218.248139 
L 321.648649 225.38185 
L 327.932432 232.166089 
L 334.216216 238.622595 
L 340.5 244.772537 
L 346.783784 250.635706 
L 353.067568 256.22989 
L 359.351351 261.571407 
L 366.891892 267.669665 
L 374.432432 273.451096 
L 381.972973 278.937898 
L 389.513514 284.150726 
L 397.054054 289.108222 
L 404.594595 293.82761 
L 413.391892 299.053563 
L 422.189189 303.999653 
L 430.986486 308.686574 
L 439.783784 313.133165 
L 449.837838 317.942569 
L 459.891892 322.483501 
L 469.945946 326.776817 
L 480 330.841351 
L 491.310811 335.161623 
L 502.621622 339.235702 
L 513.932432 343.083238 
L 526.5 347.113935 
L 539.067568 350.908378 
L 552.891892 354.832284 
L 566.716216 358.51791 
L 580.540541 361.984926 
L 595.621622 365.538537 
L 611.959459 369.143307 
L 628.297297 372.516492 
L 645.891892 375.91391 
L 663.486486 379.089984 
L 682.337838 382.271378 
L 702.445946 385.435088 
L 723.810811 388.562358 
L 746.432432 391.637227 
L 770.310811 394.646452 
L 795.445946 397.57932 
L 821.837838 400.427455 
L 849.486486 403.184555 
L 865 404.639423 
L 865 404.639423 
" style="fill:none;stroke:#000000;stroke-dasharray:5.55,2.4;stroke-dashoffset:0;stroke-width:1.5;"/>
   </g>
   <g id="line2d_3">
    <path clip-path="url(#p8a2c013504)" d="M 108 320.981415 
L 777.6 320.981415 
" style="fill:none;stroke:#000000;stroke-linecap:square;stroke-width:1.5;"/>
   </g>
   <g id="line2d_4">
    <path clip-path="url(#p8a2c013504)" d="M 108 320.981415 
L 777.6 320.981415 
" style="fill:none;stroke:#000000;stroke-linecap:square;stroke-width:1.5;"/>
   </g>
   <g id="line2d_5">
    <path clip-path="url(#p8a2c013504)" d="M 108 585.991187 
L 777.6 585.991187 
" style="fill:none;stroke:#000000;stroke-linecap:square;stroke-width:1.5;"/>
   </g>
   <g id="line2d_6">
    <path clip-path="url(#p8a2c013504)" d="M 108 468.314616 
L 777.6 468.314616 
" style="fill:none;stroke:#000000;stroke-dasharray:5.55,2.4;stroke-dashoffset:0;stroke-width:1.5;"/>
   </g>
   <g id="line2d_7">
    <path clip-path="url(#p8a2c013504)" d="M 381.972973 691.772727 
L 381.972973 12.272727 
" style="fill:none;stroke:#000000;stroke-linecap:square;stroke-width:1.5;"/>
   </g>
   <g id="line2d_8">
    <path clip-path="url(#p8a2c013504)" d="M 456.121622 691.772727 
L 456.121622 12.272727 
" style="fill:none;stroke:#000000;stroke-dasharray:5.55,2.4;stroke-dashoffset:0;stroke-width:1.5;"/>
   </g>
   <g id="patch_6">
    <path d="M 108 630 
L 108 86.4 
" style="fill:none;stroke:#000000;stroke-linecap:square;stroke-linejoin:miter;stroke-width:0.8;"/>
   </g>
   <g id="patch_7">
    <path d="M 777.6 630 
L 777.6 86.4 
" style="fill:none;stroke:#000000;stroke-linecap:square;stroke-linejoin:miter;stroke-width:0.8;"/>
   </g>
   <g id="patch_8">
    <path d="M 108 630 
L 777.6 630 
" style="fill:none;stroke:#000000;stroke-linecap:square;stroke-linejoin:miter;stroke-width:0.8;"/>
   </g>
   <g id="patch_9">
    <path d="M 108 86.4 
L 777.6 86.4 
" style="fill:none;stroke:#000000;stroke-linecap:square;stroke-linejoin:miter;stroke-width:0.8;"/>
   </g>
   <g id="text_1">
    <!-- $m_{t}^{e}$ -->
    <defs>
     <path d="M 20.59375 29.234375 
C 20.796875 29.84375 23.296875 34.828125 27 38.015625 
C 29.59375 40.40625 33 42.015625 36.90625 42.015625 
C 40.90625 42.015625 42.296875 39.015625 42.296875 35.03125 
C 42.296875 34.421875 42.296875 32.4375 41.09375 27.734375 
L 38.59375 17.46875 
C 37.796875 14.46875 35.90625 7.078125 35.703125 5.984375 
C 35.296875 4.484375 34.703125 1.890625 34.703125 1.5 
C 34.703125 0.09375 35.796875 -1 37.296875 -1 
C 40.296875 -1 40.796875 1.296875 41.703125 4.890625 
L 47.703125 28.734375 
C 47.90625 29.53125 53.09375 42.015625 64.09375 42.015625 
C 68.09375 42.015625 69.5 39.015625 69.5 35.03125 
C 69.5 29.4375 65.59375 18.5625 63.40625 12.578125 
C 62.5 10.171875 62 8.875 62 7.078125 
C 62 2.59375 65.09375 -1 69.90625 -1 
C 79.203125 -1 82.703125 13.671875 82.703125 14.265625 
C 82.703125 14.765625 82.296875 15.171875 81.703125 15.171875 
C 80.796875 15.171875 80.703125 14.875 80.203125 13.171875 
C 77.90625 5.1875 74.203125 1 70.203125 1 
C 69.203125 1 67.59375 1 67.59375 4.203125 
C 67.59375 6.8125 68.796875 10 69.203125 11.09375 
C 71 15.90625 75.5 27.703125 75.5 33.515625 
C 75.5 39.5 72 44 64.40625 44 
C 57.703125 44 52.296875 40.21875 48.296875 34.328125 
C 48 39.71875 44.703125 44 37.203125 44 
C 28.296875 44 23.59375 37.734375 21.796875 35.234375 
C 21.5 40.90625 17.40625 44 13 44 
C 10.09375 44 7.796875 42.609375 5.90625 38.8125 
C 4.09375 35.21875 2.703125 29.140625 2.703125 28.734375 
C 2.703125 28.34375 3.09375 27.84375 3.796875 27.84375 
C 4.59375 27.84375 4.703125 27.9375 5.296875 30.234375 
C 6.796875 36.125 8.703125 42.015625 12.703125 42.015625 
C 15 42.015625 15.796875 40.40625 15.796875 37.421875 
C 15.796875 35.21875 14.796875 31.328125 14.09375 28.234375 
L 11.296875 17.46875 
C 10.90625 15.5625 9.796875 11.078125 9.296875 9.28125 
C 8.59375 6.6875 7.5 2 7.5 1.5 
C 7.5 0.09375 8.59375 -1 10.09375 -1 
C 11.296875 -1 12.703125 -0.40625 13.5 1.09375 
C 13.703125 1.59375 14.59375 5.09375 15.09375 7.078125 
L 17.296875 16.0625 
z
" id="CMMI12-109"/>
     <path d="M 17.90625 23.109375 
C 20.59375 23.109375 27.40625 23.109375 32.203125 24.921875 
C 39.796875 27.859375 40.5 33.71875 40.5 35.53125 
C 40.5 39.96875 36.703125 44 30.09375 44 
C 19.59375 44 4.5 34.53125 4.5 16.765625 
C 4.5 6.28125 10.5 -1 19.59375 -1 
C 33.203125 -1 41.796875 9.515625 41.796875 10.8125 
C 41.796875 11.40625 41.203125 11.90625 40.796875 11.90625 
C 40.5 11.90625 40.40625 11.8125 39.5 10.921875 
C 33.09375 2.484375 23.59375 1 19.796875 1 
C 14.09375 1 11.09375 5.46875 11.09375 12.84375 
C 11.09375 14.234375 11.09375 16.734375 12.59375 23.109375 
z
M 13.09375 25 
C 17.40625 40.5 26.90625 42.015625 30.09375 42.015625 
C 34.5 42.015625 37.5 39.40625 37.5 35.578125 
C 37.5 25 21.5 25 17.296875 25 
z
" id="CMMI12-101"/>
     <path d="M 20.09375 40.09375 
L 29.296875 40.09375 
C 31.203125 40.09375 32.203125 40.09375 32.203125 41.890625 
C 32.203125 43 31.59375 43 29.59375 43 
L 20.796875 43 
L 24.5 57.6875 
C 24.90625 59.078125 24.90625 59.28125 24.90625 60 
C 24.90625 61.609375 23.59375 62.5 22.296875 62.5 
C 21.5 62.5 19.203125 62.203125 18.40625 58.984375 
L 14.5 43 
L 5.09375 43 
C 3.09375 43 2.203125 43 2.203125 41.09375 
C 2.203125 40.09375 2.90625 40.09375 4.796875 40.09375 
L 13.703125 40.09375 
L 7.09375 13.765625 
C 6.296875 10.28125 6 9.28125 6 7.984375 
C 6 3.296875 9.296875 -1 14.90625 -1 
C 25 -1 30.40625 13.5625 30.40625 14.25 
C 30.40625 14.859375 30 15.15625 29.40625 15.15625 
C 29.203125 15.15625 28.796875 15.15625 28.59375 14.75 
C 28.5 14.65625 28.40625 14.546875 27.703125 12.953125 
C 25.59375 7.984375 21 1 15.203125 1 
C 12.203125 1 12 3.5 12 5.6875 
C 12 5.78125 12 7.6875 12.296875 8.875 
z
" id="CMMI12-116"/>
    </defs>
    <g transform="translate(785.97 636.177273)scale(0.22 -0.22)">
     <use transform="translate(0 24.62935)scale(0.996264)" xlink:href="#CMMI12-109"/>
     <use transform="translate(85.327224 60.782989)scale(0.697382)" xlink:href="#CMMI12-101"/>
     <use transform="translate(85.327224 0)scale(0.697382)" xlink:href="#CMMI12-116"/>
    </g>
   </g>
   <g id="text_2">
    <!-- Growth -->
    <defs>
     <path d="M 62.09375 19.265625 
C 62.09375 23.015625 62.40625 23.515625 68.59375 23.515625 
L 68.59375 26.09375 
C 66.203125 26 60.796875 26 58.09375 26 
C 55.296875 26 47.5 26 43.703125 26 
L 43.703125 23.515625 
L 46.703125 23.515625 
C 55.296875 23.515625 55.5 22.40625 55.5 18.765625 
L 55.5 12.09375 
C 55.5 0.984375 42.5 0.984375 39.40625 0.984375 
C 29.09375 0.984375 12.203125 7.984375 12.203125 33.75 
C 12.203125 59.5 28.796875 66.40625 38.5 66.40625 
C 49.796875 66.40625 58 56.65625 59.90625 42.828125 
C 60.09375 41.625 60.09375 41.421875 61 41.421875 
C 62.09375 41.421875 62.09375 41.625 62.09375 43.421875 
L 62.09375 67 
C 62.09375 68.78125 62 68.890625 61.40625 68.890625 
C 61 68.890625 60.90625 68.78125 60.203125 67.59375 
L 55.796875 59.234375 
C 50.90625 65.421875 44.90625 69 37.203125 69 
C 20.09375 69 4.59375 54 4.59375 33.5625 
C 4.59375 13.203125 19.796875 -2 37.40625 -2 
C 45.5 -2 53.40625 0.875 56.5 6.515625 
C 58.203125 2.46875 61 -0.3125 61.5 -0.3125 
C 62 -0.3125 62.09375 -0.203125 62.09375 1.5625 
z
" id="CMR17-71"/>
     <path d="M 15 23.390625 
C 15 33 19.09375 42 26.59375 42 
C 27.296875 42 28 41.90625 28.703125 41.59375 
C 28.703125 41.59375 26.5 40.890625 26.5 38.3125 
C 26.5 35.90625 28.40625 34.90625 29.90625 34.90625 
C 31.09375 34.90625 33.296875 35.609375 33.296875 38.40625 
C 33.296875 41.609375 30.09375 43.59375 26.703125 43.59375 
C 19.09375 43.59375 15.796875 36.203125 14.796875 32.703125 
L 14.703125 32.703125 
L 14.703125 43.59375 
L 3.09375 42.5 
L 3.09375 39.90625 
C 9 39.90625 9.90625 39.296875 9.90625 34.5 
L 9.90625 6.6875 
C 9.90625 2.875 9.5 2.390625 3.09375 2.390625 
L 3.09375 -0.203125 
C 5.5 0 10.09375 0 12.703125 0 
C 15.59375 0 20.703125 0 23.40625 -0.203125 
L 23.40625 2.390625 
C 16.203125 2.390625 15 2.390625 15 6.875 
z
" id="CMR17-114"/>
     <path d="M 43.09375 21.1875 
C 43.09375 34 33.796875 44 22.90625 44 
C 12 44 2.703125 34 2.703125 21.1875 
C 2.703125 8.609375 12 -1 22.90625 -1 
C 33.796875 -1 43.09375 8.609375 43.09375 21.1875 
z
M 22.90625 0.796875 
C 18.203125 0.796875 14.203125 3.59375 11.90625 7.5 
C 9.40625 11.984375 9.09375 17.59375 9.09375 22 
C 9.09375 26.203125 9.296875 31.40625 11.90625 35.90625 
C 13.90625 39.203125 17.796875 42.40625 22.90625 42.40625 
C 27.40625 42.40625 31.203125 39.90625 33.59375 36.40625 
C 36.703125 31.703125 36.703125 25.109375 36.703125 22 
C 36.703125 18.09375 36.5 12.109375 33.796875 7.296875 
C 31 2.703125 26.703125 0.796875 22.90625 0.796875 
z
" id="CMR17-111"/>
     <path d="M 58.203125 34.109375 
C 60.203125 40 64.203125 40 65.703125 40 
L 65.703125 42.6875 
C 63.703125 42.6875 61.703125 42.6875 59.703125 42.6875 
C 57.796875 42.6875 53.5 42.6875 51.796875 42.78125 
L 51.796875 40 
C 54.90625 40 56.59375 38.203125 56.59375 35.71875 
C 56.59375 35.015625 56.40625 34.125 56.203125 33.4375 
L 46.796875 6.359375 
L 36.59375 35.546875 
C 36.40625 36.234375 36.09375 37.03125 36.09375 37.421875 
C 36.09375 40 39.5 40 41.09375 40 
L 41.09375 42.78125 
C 38.796875 42.6875 34.59375 42.6875 32.203125 42.6875 
C 29.703125 42.6875 27.09375 42.6875 24.796875 42.78125 
L 24.796875 40 
C 30.296875 40 30.296875 39.796875 32.40625 33.578125 
L 23.203125 7.046875 
L 13.296875 35.640625 
C 12.796875 36.921875 12.796875 37.125 12.796875 37.421875 
C 12.796875 40 16.203125 40 17.796875 40 
L 17.796875 42.78125 
C 15.40625 42.6875 11.203125 42.6875 8.703125 42.6875 
C 6.5 42.6875 3.09375 42.6875 1 42.78125 
L 1 40 
C 5.40625 40 6.5 39.703125 7.59375 36.421875 
L 19.90625 0.765625 
C 20.296875 -0.515625 20.59375 -0.8125 21.40625 -0.8125 
C 22.09375 -0.8125 22.5 -0.609375 23 0.875 
L 33.296875 30.9375 
L 43.703125 0.875 
C 44.203125 -0.609375 44.59375 -0.8125 45.296875 -0.8125 
C 46.09375 -0.8125 46.40625 -0.515625 46.796875 0.78125 
z
" id="CMR17-119"/>
     <path d="M 15.09375 40 
L 29.09375 40 
L 29.09375 42.578125 
L 15.09375 42.578125 
L 15.09375 61 
L 13.296875 61 
C 13.09375 50.703125 9.59375 41.6875 1.09375 41.6875 
L 1.09375 40 
L 9.796875 40 
L 9.796875 12.046875 
C 9.796875 10.15625 9.796875 -1 21.40625 -1 
C 27.296875 -1 30.703125 4.78125 30.703125 12.140625 
L 30.703125 17.8125 
L 28.90625 17.8125 
L 28.90625 12.234375 
C 28.90625 5.375 26.203125 0.796875 22 0.796875 
C 19.09375 0.796875 15.09375 2.78125 15.09375 11.84375 
z
" id="CMR17-116"/>
     <path d="M 41.5 30.203125 
C 41.5 35.296875 40.5 43.59375 28.703125 43.59375 
C 20.5 43.59375 16.5 37 15.296875 33.703125 
L 15.203125 33.703125 
L 15.203125 68.6875 
L 3.296875 67.59375 
L 3.296875 65 
C 9.203125 65 10.09375 64.40625 10.09375 59.640625 
L 10.09375 6.65625 
C 10.09375 2.875 9.703125 2.390625 3.296875 2.390625 
L 3.296875 -0.203125 
C 5.703125 0 10.09375 0 12.703125 0 
C 15.296875 0 19.796875 0 22.203125 -0.203125 
L 22.203125 2.390625 
C 15.796875 2.390625 15.40625 2.78125 15.40625 6.6875 
L 15.40625 25.90625 
C 15.40625 35.109375 21 42 28 42 
C 35.40625 42 36.203125 35.40625 36.203125 30.59375 
L 36.203125 6.6875 
C 36.203125 2.875 35.796875 2.390625 29.40625 2.390625 
L 29.40625 -0.203125 
C 31.796875 0 36.203125 0 38.796875 0 
C 41.40625 0 45.90625 0 48.296875 -0.203125 
L 48.296875 2.390625 
C 41.90625 2.390625 41.5 2.78125 41.5 6.6875 
z
" id="CMR17-104"/>
    </defs>
    <g transform="translate(108 74.045455)scale(0.22 -0.22)">
     <use transform="scale(0.996264)" xlink:href="#CMR17-71"/>
     <use transform="translate(72.355346 0)scale(0.996264)" xlink:href="#CMR17-114"/>
     <use transform="translate(107.636114 0)scale(0.996264)" xlink:href="#CMR17-111"/>
     <use transform="translate(150.724137 0)scale(0.996264)" xlink:href="#CMR17-119"/>
     <use transform="translate(217.234017 0)scale(0.996264)" xlink:href="#CMR17-116"/>
     <use transform="translate(252.514785 0)scale(0.996264)" xlink:href="#CMR17-104"/>
    </g>
   </g>
   <g id="text_3">
    <!-- $\gamma$ -->
    <defs>
     <path d="M 37.796875 11.875 
C 37.59375 16.734375 37.40625 24.390625 33.59375 33.328125 
C 31.59375 38.3125 28.203125 43.5625 20.90625 43.5625 
C 8.59375 43.5625 1.90625 27.96875 1.90625 25.390625 
C 1.90625 24.484375 2.59375 24.484375 2.90625 24.484375 
C 3.796875 24.484375 3.796875 24.6875 4.296875 25.984375 
C 6.40625 32.140625 12.796875 37 19.703125 37 
C 33.59375 37 35.59375 21.609375 35.59375 11.78125 
C 35.59375 5.5 34.90625 3.4375 34.296875 1.4375 
C 32.40625 -4.71875 29.09375 -17.03125 29.09375 -19.8125 
C 29.09375 -20.609375 29.40625 -21.5 30.203125 -21.5 
C 31.703125 -21.5 32.59375 -18.21875 33.703125 -14.25 
C 36.09375 -5.515625 36.703125 -1.140625 37.203125 2.828125 
C 37.5 5.21875 43.203125 21.625 51.09375 37.21875 
C 51.796875 38.796875 53.203125 41.484375 53.203125 41.78125 
C 53.203125 41.875 53.09375 42.578125 52.203125 42.578125 
C 52 42.578125 51.5 42.578125 51.296875 42.171875 
C 51.09375 41.984375 47.59375 35.21875 44.59375 28.46875 
C 43.09375 25.09375 41.09375 20.625 37.796875 11.875 
z
" id="CMMI12-13"/>
    </defs>
    <g transform="translate(91.26 320.981415)scale(0.22 -0.22)">
     <use transform="scale(0.996264)" xlink:href="#CMMI12-13"/>
    </g>
   </g>
   <g id="text_4">
    <!-- $\rho^{-1}(r-\theta) \approx\phi$ -->
    <defs>
     <path d="M 3.09375 -17.296875 
C 3 -17.796875 2.796875 -18.390625 2.796875 -19 
C 2.796875 -20.5 4 -21.5 5.5 -21.5 
C 7 -21.5 8.40625 -20.5 9 -19.09375 
C 9.40625 -18.1875 12.203125 -6.203125 15.40625 6.09375 
C 17.40625 1.09375 21.09375 -1 25 -1 
C 36.296875 -1 49.09375 12.96875 49.09375 28.046875 
C 49.09375 38.71875 42.59375 44 35.703125 44 
C 26.90625 44 16.203125 34.921875 12.90625 21.640625 
z
M 24.90625 1 
C 18.09375 1 16.40625 8.890625 16.40625 10.078125 
C 16.40625 10.6875 18.90625 20.234375 19.203125 21.734375 
C 24.296875 41.71875 34.09375 41.71875 35.59375 41.71875 
C 40.09375 41.71875 42.59375 37.65625 42.59375 31.8125 
C 42.59375 26.75 39.90625 16.9375 38.203125 12.796875 
C 35.203125 5.953125 30 1 24.90625 1 
z
" id="CMMI12-26"/>
     <path d="M 65.90625 23 
C 67.59375 23 69.40625 23 69.40625 25 
C 69.40625 27 67.59375 27 65.90625 27 
L 11.796875 27 
C 10.09375 27 8.296875 27 8.296875 25 
C 8.296875 23 10.09375 23 11.796875 23 
z
" id="CMSY10-0"/>
     <path d="M 26.59375 63.40625 
C 26.59375 65.5 26.5 65.5 25.09375 65.5 
C 21.203125 61.1875 15.296875 59.796875 9.703125 59.796875 
C 9.40625 59.796875 8.90625 59.796875 8.796875 59.5 
C 8.703125 59.296875 8.703125 59.09375 8.703125 57 
C 11.796875 57 17 57.59375 21 59.984375 
L 21 7.203125 
C 21 3.6875 20.796875 2.5 12.203125 2.5 
L 9.203125 2.5 
L 9.203125 0 
C 14 0 19 0 23.796875 0 
C 28.59375 0 33.59375 0 38.40625 0 
L 38.40625 2.5 
L 35.40625 2.5 
C 26.796875 2.5 26.59375 3.59375 26.59375 7.15625 
z
" id="CMR17-49"/>
     <path d="M 30.59375 -24.390625 
C 30.59375 -24.296875 30.59375 -24.09375 30.296875 -23.796875 
C 25.703125 -19.125 13.40625 -6.359375 13.40625 24.703125 
C 13.40625 55.765625 25.5 68.421875 30.40625 73.390625 
C 30.40625 73.5 30.59375 73.703125 30.59375 74 
C 30.59375 74.296875 30.296875 74.5 29.90625 74.5 
C 28.796875 74.5 20.296875 67.125 15.40625 56.15625 
C 10.40625 45.109375 9 34.359375 9 24.8125 
C 9 17.625 9.703125 5.484375 15.703125 -7.359375 
C 20.5 -17.734375 28.703125 -25 29.90625 -25 
C 30.40625 -25 30.59375 -24.796875 30.59375 -24.390625 
z
" id="CMR17-40"/>
     <path d="M 38.90625 40.8125 
C 35.796875 40.21875 34.203125 38.015625 34.203125 35.828125 
C 34.203125 33.421875 36.09375 32.625 37.5 32.625 
C 40.296875 32.625 42.59375 35.03125 42.59375 38.015625 
C 42.59375 41.21875 39.5 44 34.5 44 
C 30.5 44 25.90625 42.203125 21.703125 36.125 
C 21 41.40625 17 44 13 44 
C 9.09375 44 7.09375 41.015625 5.90625 38.8125 
C 4.203125 35.21875 2.703125 29.234375 2.703125 28.734375 
C 2.703125 28.34375 3.09375 27.84375 3.796875 27.84375 
C 4.59375 27.84375 4.703125 27.9375 5.296875 30.234375 
C 6.796875 36.21875 8.703125 42.015625 12.703125 42.015625 
C 15.09375 42.015625 15.796875 40.3125 15.796875 37.421875 
C 15.796875 35.21875 14.796875 31.328125 14.09375 28.234375 
L 11.296875 17.46875 
C 10.90625 15.5625 9.796875 11.078125 9.296875 9.28125 
C 8.59375 6.6875 7.5 2 7.5 1.5 
C 7.5 0.09375 8.59375 -1 10.09375 -1 
C 11.203125 -1 13.09375 -0.296875 13.703125 1.703125 
C 14 2.5 17.703125 17.5625 18.296875 19.859375 
C 18.796875 22.046875 19.40625 24.15625 19.90625 26.34375 
C 20.296875 27.734375 20.703125 29.34375 21 30.640625 
C 21.296875 31.53125 24 36.421875 26.5 38.625 
C 27.703125 39.71875 30.296875 42.015625 34.40625 42.015625 
C 36 42.015625 37.59375 41.71875 38.90625 40.8125 
z
" id="CMMI12-114"/>
     <path d="M 44.296875 50 
C 44.296875 60.15625 41.09375 70 32.90625 70 
C 18.90625 70 4 40.859375 4 19 
C 4 14.421875 5 -1 15.5 -1 
C 29.09375 -1 44.296875 27.4375 44.296875 50 
z
M 14 36 
C 15.5 41.859375 17.59375 50.21875 21.59375 57.265625 
C 24.90625 63.234375 28.40625 68 32.796875 68 
C 36.09375 68 38.296875 65.21875 38.296875 55.6875 
C 38.296875 52.09375 38 47.140625 35.09375 36 
z
M 34.40625 33.015625 
C 31.90625 23.28125 29.796875 17 26.203125 10.734375 
C 23.296875 5.671875 19.796875 1 15.59375 1 
C 12.5 1 10 3.390625 10 13.21875 
C 10 19.6875 11.59375 26.453125 13.203125 33.015625 
z
" id="CMMI12-18"/>
     <path d="M 26.296875 24.703125 
C 26.296875 31.875 25.59375 44.015625 19.59375 56.859375 
C 14.796875 67.234375 6.59375 74.5 5.40625 74.5 
C 5.09375 74.5 4.703125 74.390625 4.703125 73.890625 
C 4.703125 73.703125 4.796875 73.59375 4.90625 73.390625 
C 9.703125 68.40625 21.90625 55.75 21.90625 24.75 
C 21.90625 -6.359375 9.796875 -19.015625 4.90625 -24.015625 
C 4.796875 -24.203125 4.703125 -24.3125 4.703125 -24.5 
C 4.703125 -25 5.09375 -25 5.40625 -25 
C 6.5 -25 15 -17.625 19.90625 -6.65625 
C 24.90625 4.390625 26.296875 15.140625 26.296875 24.703125 
z
" id="CMR17-41"/>
     <path d="M 72.21875 45.15625 
C 72.21875 47.234375 71.515625 48.140625 70.828125 48.140625 
C 70.421875 48.140625 69.515625 47.734375 69.421875 45.453125 
C 69.015625 38.578125 62.015625 34.5 55.515625 34.5 
C 49.71875 34.5 44.71875 37.578125 39.515625 41.0625 
C 34.109375 44.65625 28.703125 48.234375 22.203125 48.234375 
C 12.90625 48.234375 5.5 41.15625 5.5 31.984375 
C 5.5 29.796875 6.296875 29 6.90625 29 
C 7.90625 29 8.296875 30.890625 8.296875 31.28125 
C 8.796875 39.65625 17 42.640625 22.203125 42.640625 
C 28 42.640625 33.015625 39.546875 38.203125 36.0625 
C 43.609375 32.484375 49.015625 28.90625 55.515625 28.90625 
C 64.828125 28.90625 72.21875 35.984375 72.21875 45.15625 
z
M 72.21875 21.734375 
C 72.21875 24.640625 71.015625 24.84375 70.828125 24.84375 
C 70.421875 24.84375 69.515625 24.34375 69.421875 22.140625 
C 69.015625 15.234375 62.015625 11.140625 55.515625 11.140625 
C 49.71875 11.140625 44.71875 14.25 39.515625 17.765625 
C 34.109375 21.390625 28.703125 25 22.203125 25 
C 12.90625 25 5.5 17.890625 5.5 8.65625 
C 5.5 6.4375 6.296875 5.640625 6.90625 5.640625 
C 7.90625 5.640625 8.296875 7.546875 8.296875 7.953125 
C 8.796875 16.390625 17 19.40625 22.203125 19.40625 
C 28 19.40625 33.015625 16.28125 38.203125 12.765625 
C 43.609375 9.15625 49.015625 5.53125 55.515625 5.53125 
C 65.015625 5.53125 72.21875 12.9375 72.21875 21.734375 
z
" id="CMSY10-25"/>
     <path d="M 43 68.59375 
C 43 69.5 42.296875 69.5 42 69.5 
C 41.09375 69.5 41 69.296875 40.59375 67.59375 
L 35.203125 45.921875 
C 34.90625 44.625 34.796875 44.515625 34.703125 44.421875 
C 34.59375 44.21875 33.90625 44.125 33.703125 44.125 
C 17.296875 42.71875 4.703125 29.125 4.703125 16.515625 
C 4.703125 5.640625 13 -1 23.40625 -1 
C 22.59375 -4.078125 21.90625 -7.234375 21.09375 -10.296875 
C 19.703125 -15.546875 18.90625 -18.8125 18.90625 -19.203125 
C 18.90625 -19.390625 18.90625 -20 19.90625 -20 
C 20.203125 -20 20.59375 -20 20.796875 -19.59375 
C 21 -19.390625 21.59375 -17.015625 22 -15.75 
L 25.703125 -1 
C 42.796875 -1 55.796875 13.34375 55.796875 26.25 
C 55.796875 36.609375 48.203125 44 37.09375 44 
z
M 36.5 42.203125 
C 43.09375 42.203125 49.703125 38.484375 49.703125 28.5625 
C 49.703125 17.140625 41.796875 2 26.203125 0.78125 
z
M 23.90625 0.78125 
C 19 0.78125 10.796875 3.4375 10.796875 14.65625 
C 10.796875 27.515625 19.90625 41.8125 34.296875 41.8125 
z
" id="CMMI12-30"/>
    </defs>
    <g transform="translate(-34.29 585.991187)scale(0.22 -0.22)">
     <use transform="scale(0.996264)" xlink:href="#CMMI12-26"/>
     <use transform="translate(50.314373 36.153639)scale(0.697382)" xlink:href="#CMSY10-0"/>
     <use transform="translate(104.555366 36.153639)scale(0.697382)" xlink:href="#CMR17-49"/>
     <use transform="translate(137.03668 0)scale(0.996264)" xlink:href="#CMR17-40"/>
     <use transform="translate(172.317448 0)scale(0.996264)" xlink:href="#CMMI12-114"/>
     <use transform="translate(241.127267 0)scale(0.996264)" xlink:href="#CMSY10-0"/>
     <use transform="translate(340.753942 0)scale(0.996264)" xlink:href="#CMMI12-18"/>
     <use transform="translate(388.923449 0)scale(0.996264)" xlink:href="#CMR17-41"/>
     <use transform="translate(451.878226 0)scale(0.996264)" xlink:href="#CMSY10-25"/>
     <use transform="translate(557.039702 0)scale(0.996264)" xlink:href="#CMMI12-30"/>
    </g>
   </g>
   <g id="text_5">
    <!-- $\rho^{-1}(r^{\prime}-\theta) \approx \phi^{\prime}$ -->
    <defs>
     <path d="M 25.296875 47.5 
C 25.796875 48.703125 26.203125 49.59375 26.203125 50.59375 
C 26.203125 53.5 23.59375 55.90625 20.5 55.90625 
C 17.703125 55.90625 15.90625 54 15.203125 51.40625 
L 3.296875 7.703125 
C 3.296875 7.5 2.90625 6.40625 2.90625 6.296875 
C 2.90625 5.203125 5.5 4.5 6.296875 4.5 
C 6.90625 4.5 7 4.796875 7.59375 6.09375 
z
" id="CMSY10-48"/>
    </defs>
    <g transform="translate(-38.475 468.314616)scale(0.22 -0.22)">
     <use transform="scale(0.996264)" xlink:href="#CMMI12-26"/>
     <use transform="translate(50.314373 36.153639)scale(0.697382)" xlink:href="#CMSY10-0"/>
     <use transform="translate(104.555366 36.153639)scale(0.697382)" xlink:href="#CMR17-49"/>
     <use transform="translate(137.03668 0)scale(0.996264)" xlink:href="#CMR17-40"/>
     <use transform="translate(172.317448 0)scale(0.996264)" xlink:href="#CMMI12-114"/>
     <use transform="translate(218.98806 36.153639)scale(0.697382)" xlink:href="#CMSY10-48"/>
     <use transform="translate(260.803359 0)scale(0.996264)" xlink:href="#CMSY10-0"/>
     <use transform="translate(360.430034 0)scale(0.996264)" xlink:href="#CMMI12-18"/>
     <use transform="translate(408.599542 0)scale(0.996264)" xlink:href="#CMR17-41"/>
     <use transform="translate(471.554318 0)scale(0.996264)" xlink:href="#CMSY10-25"/>
     <use transform="translate(576.715795 0)scale(0.996264)" xlink:href="#CMMI12-30"/>
     <use transform="translate(634.449975 36.153639)scale(0.697382)" xlink:href="#CMSY10-48"/>
    </g>
   </g>
   <g id="text_6">
    <!-- $\check{m}$ -->
    <defs>
     <path d="M 22.90625 55.640625 
L 11.703125 63.203125 
L 10.703125 61.8125 
L 22.90625 51.65625 
L 35.09375 61.8125 
L 34.09375 63.203125 
z
" id="CMR17-20"/>
    </defs>
    <g transform="translate(373.602973 660.886364)scale(0.22 -0.22)">
     <use transform="translate(19.818381 0.006461)scale(0.996264)" xlink:href="#CMR17-20"/>
     <use transform="scale(0.996264)" xlink:href="#CMMI12-109"/>
    </g>
   </g>
   <g id="text_7">
    <!-- $\check{m}^{\prime}$ -->
    <g transform="translate(447.751622 660.886364)scale(0.22 -0.22)">
     <use transform="translate(19.818381 0.006461)scale(0.996264)" xlink:href="#CMR17-20"/>
     <use transform="scale(0.996264)" xlink:href="#CMMI12-109"/>
     <use transform="translate(85.327224 36.153639)scale(0.697382)" xlink:href="#CMSY10-48"/>
    </g>
   </g>
   <g id="text_8">
    <!-- $\Delta log \  c_{t+1}^{e}$ -->
    <defs>
     <path d="M 40.59375 68.796875 
C 39.796875 70.5 39.40625 70.5 38.59375 70.5 
C 37.40625 70.5 37.296875 70.296875 36.59375 68.890625 
L 4.203125 1.703125 
C 4.09375 1.5 3.703125 0.59375 3.703125 0.5 
C 3.703125 0.09375 3.796875 0 5.59375 0 
L 71.5 0 
C 73.296875 0 73.40625 0.09375 73.40625 0.5 
C 73.40625 0.59375 73 1.5 72.90625 1.703125 
z
M 36.09375 63.09375 
L 63.796875 5.59375 
L 8.296875 5.59375 
z
" id="CMR17-1"/>
     <path d="M 25.40625 66.515625 
C 25.5 66.90625 25.703125 67.5 25.703125 68 
C 25.703125 69 24.703125 69 24.5 69 
C 24.40625 69 20.796875 68.640625 19 68.390625 
C 17.296875 68.390625 15.796875 68.09375 14 68.09375 
C 11.59375 67.890625 10.90625 67.796875 10.90625 66 
C 10.90625 65 11.90625 65 12.90625 65 
C 18 65 18 64.09375 18 63.109375 
C 18 62.71875 18 62.515625 17.5 60.734375 
L 5.09375 11.421875 
C 4.796875 10.328125 4.59375 9.53125 4.59375 7.953125 
C 4.59375 2.984375 8.296875 -1 13.40625 -1 
C 16.703125 -1 18.90625 1.1875 20.5 4.28125 
C 22.203125 7.546875 23.59375 13.8125 23.59375 14.203125 
C 23.59375 14.703125 23.203125 15.109375 22.59375 15.109375 
C 21.703125 15.109375 21.59375 14.609375 21.203125 13.125 
C 19.40625 6.265625 17.59375 1 13.59375 1 
C 10.59375 1 10.59375 4.171875 10.59375 5.578125 
C 10.59375 5.96875 10.59375 8.046875 11.296875 10.84375 
z
" id="CMMI12-108"/>
     <path d="M 45.59375 27.4375 
C 45.59375 36.921875 39.40625 44 30.296875 44 
C 17.09375 44 4.09375 29.640625 4.09375 15.5625 
C 4.09375 6.09375 10.296875 -1 19.40625 -1 
C 32.703125 -1 45.59375 13.375 45.59375 27.4375 
z
M 19.5 1 
C 14.5 1 10.796875 4.984375 10.796875 11.96875 
C 10.796875 16.5625 13.203125 26.75 16 31.734375 
C 20.5 39.421875 26.09375 42.015625 30.203125 42.015625 
C 35.09375 42.015625 38.90625 38.015625 38.90625 31.03125 
C 38.90625 27.046875 36.796875 16.359375 33 10.28125 
C 28.90625 3.59375 23.40625 1 19.5 1 
z
" id="CMMI12-111"/>
     <path d="M 33.796875 12.671875 
C 33.40625 11.078125 33.203125 10.671875 31.90625 9.1875 
C 27.796875 3.890625 23.59375 2 20.5 2 
C 17.203125 2 14.09375 4.59375 14.09375 11.46875 
C 14.09375 16.765625 17.09375 27.9375 19.296875 32.4375 
C 22.203125 38.015625 26.703125 42.015625 30.90625 42.015625 
C 37.5 42.015625 38.796875 33.828125 38.796875 33.234375 
L 38.5 31.828125 
z
M 40 37.421875 
C 38.703125 40.3125 35.90625 44 30.90625 44 
C 20 44 7.59375 30.328125 7.59375 15.46875 
C 7.59375 5.09375 13.90625 0 20.296875 0 
C 25.59375 0 30.296875 4.1875 32.09375 6.1875 
L 29.90625 -2.671875 
C 28.5 -8.0625 27.90625 -10.53125 24.296875 -13.96875 
C 20.203125 -18 16.40625 -18 14.203125 -18 
C 11.203125 -18 8.703125 -17.796875 6.203125 -17.015625 
C 9.40625 -16.140625 10.203125 -13.40625 10.203125 -12.328125 
C 10.203125 -10.765625 9 -9.1875 6.796875 -9.1875 
C 4.40625 -9.1875 1.796875 -11.15625 1.796875 -14.40625 
C 1.796875 -18.4375 5.90625 -20 14.40625 -20 
C 27.296875 -20 34 -11.765625 35.296875 -6.40625 
L 46.40625 38.046875 
C 46.703125 39.234375 46.703125 39.4375 46.703125 39.625 
C 46.703125 41.015625 45.59375 42.109375 44.09375 42.109375 
C 41.703125 42.109375 40.296875 40.109375 40 37.421875 
z
" id="CMMI12-103"/>
     <path d="M 39.09375 37.984375 
C 37.203125 37.984375 36.296875 37.984375 34.90625 36.796875 
C 34.296875 36.296875 33.203125 34.796875 33.203125 33.203125 
C 33.203125 31.203125 34.703125 30 36.59375 30 
C 39 30 41.703125 31.9375 41.703125 35.8125 
C 41.703125 40.4375 37.09375 44 30.203125 44 
C 17.09375 44 4 29.734375 4 15.5625 
C 4 6.890625 9.40625 -1 19.59375 -1 
C 33.203125 -1 41.796875 9.71875 41.796875 11.03125 
C 41.796875 11.625 41.203125 12.125 40.796875 12.125 
C 40.5 12.125 40.40625 12.03125 39.5 11.140625 
C 33.09375 2.53125 23.59375 1 19.796875 1 
C 12.90625 1 10.703125 6.96875 10.703125 11.9375 
C 10.703125 15.4375 12.40625 25.078125 16 31.859375 
C 18.59375 36.53125 24 41.90625 30.296875 41.90625 
C 31.59375 41.90625 37.09375 41.90625 39.09375 37.984375 
z
" id="CMMI12-99"/>
     <path d="M 37.703125 23 
L 64.203125 23 
C 65.59375 23 67.296875 23 67.296875 24.6875 
C 67.296875 26.484375 65.703125 26.484375 64.203125 26.484375 
L 37.703125 26.484375 
L 37.703125 52.90625 
C 37.703125 54.296875 37.703125 56 36 56 
C 34.203125 56 34.203125 54.40625 34.203125 52.90625 
L 34.203125 26.484375 
L 7.703125 26.484375 
C 6.296875 26.484375 4.59375 26.484375 4.59375 24.796875 
C 4.59375 23 6.203125 23 7.703125 23 
L 34.203125 23 
L 34.203125 -3.40625 
C 34.203125 -4.796875 34.203125 -6.5 35.90625 -6.5 
C 37.703125 -6.5 37.703125 -4.90625 37.703125 -3.40625 
z
" id="CMR17-43"/>
    </defs>
    <g transform="translate(174.96 228.477273)scale(0.22 -0.22)">
     <use transform="translate(0 24.740171)scale(0.996264)" xlink:href="#CMR17-1"/>
     <use transform="translate(76.91959 24.740171)scale(0.996264)" xlink:href="#CMMI12-108"/>
     <use transform="translate(108.167994 24.740171)scale(0.996264)" xlink:href="#CMMI12-111"/>
     <use transform="translate(155.063303 24.740171)scale(0.996264)" xlink:href="#CMMI12-103"/>
     <use transform="translate(235.424759 24.740171)scale(0.996264)" xlink:href="#CMMI12-99"/>
     <use transform="translate(277.407993 60.89381)scale(0.697382)" xlink:href="#CMMI12-101"/>
     <use transform="translate(277.407993 0)scale(0.697382)" xlink:href="#CMMI12-116"/>
     <use transform="translate(302.066302 0)scale(0.697382)" xlink:href="#CMR17-43"/>
     <use transform="translate(352.266434 0)scale(0.697382)" xlink:href="#CMR17-49"/>
    </g>
   </g>
   <g id="text_9">
    <!-- $\Delta log \ c_{t+1}^{e} \prime$ -->
    <g transform="translate(626.94 373.643182)scale(0.22 -0.22)">
     <use transform="translate(0 24.740171)scale(0.996264)" xlink:href="#CMR17-1"/>
     <use transform="translate(76.91959 24.740171)scale(0.996264)" xlink:href="#CMMI12-108"/>
     <use transform="translate(108.167994 24.740171)scale(0.996264)" xlink:href="#CMMI12-111"/>
     <use transform="translate(155.063303 24.740171)scale(0.996264)" xlink:href="#CMMI12-103"/>
     <use transform="translate(235.424759 24.740171)scale(0.996264)" xlink:href="#CMMI12-99"/>
     <use transform="translate(277.407993 60.89381)scale(0.697382)" xlink:href="#CMMI12-101"/>
     <use transform="translate(277.407993 0)scale(0.697382)" xlink:href="#CMMI12-116"/>
     <use transform="translate(302.066302 0)scale(0.697382)" xlink:href="#CMR17-43"/>
     <use transform="translate(352.266434 0)scale(0.697382)" xlink:href="#CMR17-49"/>
     <use transform="translate(384.747748 24.740171)scale(0.996264)" xlink:href="#CMSY10-48"/>
    </g>
   </g>
  </g>
 </g>
 <defs>
  <clipPath id="p8a2c013504">
   <rect height="543.6" width="669.6" x="108" y="86.4"/>
  </clipPath>
 </defs>
</svg>
