<?xml version="1.0" encoding="utf-8" standalone="no"?>
<!DOCTYPE svg PUBLIC "-//W3C//DTD SVG 1.1//EN"
  "http://www.w3.org/Graphics/SVG/1.1/DTD/svg11.dtd">
<!-- Created with matplotlib (https://matplotlib.org/) -->
<svg height="648pt" version="1.1" viewBox="0 0 864 648" width="864pt" xmlns="http://www.w3.org/2000/svg" xmlns:xlink="http://www.w3.org/1999/xlink">
 <defs>
  <style type="text/css">
*{stroke-linecap:butt;stroke-linejoin:round;}
  </style>
 </defs>
 <g id="figure_1">
  <g id="patch_1">
   <path d="M 0 648 
L 864 648 
L 864 0 
L 0 0 
z
" style="fill:#ffffff;"/>
  </g>
  <g id="axes_1">
   <g id="patch_2">
    <path d="M 108 567 
L 777.6 567 
L 777.6 77.76 
L 108 77.76 
z
" style="fill:#ffffff;"/>
   </g>
   <g id="PathCollection_1">
    <defs>
     <path d="M 0 1.224745 
C 0.324806 1.224745 0.636353 1.095698 0.866025 0.866025 
C 1.095698 0.636353 1.224745 0.324806 1.224745 0 
C 1.224745 -0.324806 1.095698 -0.636353 0.866025 -0.866025 
C 0.636353 -1.095698 0.324806 -1.224745 0 -1.224745 
C -0.324806 -1.224745 -0.636353 -1.095698 -0.866025 -0.866025 
C -1.095698 -0.636353 -1.224745 -0.324806 -1.224745 0 
C -1.224745 0.324806 -1.095698 0.636353 -0.866025 0.866025 
C -0.636353 1.095698 -0.324806 1.224745 0 1.224745 
z
" id="m60171b5170" style="stroke:#000000;"/>
    </defs>
    <g clip-path="url(#pf07558d6cb)">
     <use style="stroke:#000000;" x="133.753846" xlink:href="#m60171b5170" y="226.265979"/>
     <use style="stroke:#000000;" x="138.904615" xlink:href="#m60171b5170" y="226.265979"/>
     <use style="stroke:#000000;" x="144.055385" xlink:href="#m60171b5170" y="226.265979"/>
     <use style="stroke:#000000;" x="149.206154" xlink:href="#m60171b5170" y="226.265979"/>
     <use style="stroke:#000000;" x="154.356923" xlink:href="#m60171b5170" y="226.265979"/>
     <use style="stroke:#000000;" x="159.507692" xlink:href="#m60171b5170" y="226.265979"/>
     <use style="stroke:#000000;" x="164.658462" xlink:href="#m60171b5170" y="226.265979"/>
     <use style="stroke:#000000;" x="169.809231" xlink:href="#m60171b5170" y="226.265979"/>
     <use style="stroke:#000000;" x="174.96" xlink:href="#m60171b5170" y="226.265979"/>
     <use style="stroke:#000000;" x="180.110769" xlink:href="#m60171b5170" y="226.265979"/>
     <use style="stroke:#000000;" x="185.261538" xlink:href="#m60171b5170" y="226.265979"/>
     <use style="stroke:#000000;" x="190.412308" xlink:href="#m60171b5170" y="226.265979"/>
     <use style="stroke:#000000;" x="195.563077" xlink:href="#m60171b5170" y="226.265979"/>
     <use style="stroke:#000000;" x="200.713846" xlink:href="#m60171b5170" y="226.265979"/>
     <use style="stroke:#000000;" x="205.864615" xlink:href="#m60171b5170" y="226.265979"/>
     <use style="stroke:#000000;" x="211.015385" xlink:href="#m60171b5170" y="222.015582"/>
     <use style="stroke:#000000;" x="216.166154" xlink:href="#m60171b5170" y="214.9454"/>
     <use style="stroke:#000000;" x="221.316923" xlink:href="#m60171b5170" y="208.378181"/>
     <use style="stroke:#000000;" x="226.467692" xlink:href="#m60171b5170" y="202.272755"/>
     <use style="stroke:#000000;" x="231.618462" xlink:href="#m60171b5170" y="196.591792"/>
     <use style="stroke:#000000;" x="236.769231" xlink:href="#m60171b5170" y="191.302045"/>
     <use style="stroke:#000000;" x="241.92" xlink:href="#m60171b5170" y="186.37341"/>
     <use style="stroke:#000000;" x="247.070769" xlink:href="#m60171b5170" y="181.778551"/>
     <use style="stroke:#000000;" x="252.221538" xlink:href="#m60171b5170" y="177.49258"/>
     <use style="stroke:#000000;" x="257.372308" xlink:href="#m60171b5170" y="173.492787"/>
     <use style="stroke:#000000;" x="262.523077" xlink:href="#m60171b5170" y="169.758401"/>
     <use style="stroke:#000000;" x="267.673846" xlink:href="#m60171b5170" y="166.270389"/>
     <use style="stroke:#000000;" x="272.824615" xlink:href="#m60171b5170" y="163.011278"/>
     <use style="stroke:#000000;" x="277.975385" xlink:href="#m60171b5170" y="159.965001"/>
     <use style="stroke:#000000;" x="283.126154" xlink:href="#m60171b5170" y="157.116757"/>
     <use style="stroke:#000000;" x="288.276923" xlink:href="#m60171b5170" y="154.452899"/>
     <use style="stroke:#000000;" x="293.427692" xlink:href="#m60171b5170" y="151.960823"/>
     <use style="stroke:#000000;" x="298.578462" xlink:href="#m60171b5170" y="149.628874"/>
     <use style="stroke:#000000;" x="303.729231" xlink:href="#m60171b5170" y="147.446264"/>
     <use style="stroke:#000000;" x="308.88" xlink:href="#m60171b5170" y="145.402998"/>
     <use style="stroke:#000000;" x="314.030769" xlink:href="#m60171b5170" y="143.489807"/>
     <use style="stroke:#000000;" x="319.181538" xlink:href="#m60171b5170" y="141.698086"/>
     <use style="stroke:#000000;" x="324.332308" xlink:href="#m60171b5170" y="140.019841"/>
     <use style="stroke:#000000;" x="329.483077" xlink:href="#m60171b5170" y="138.44764"/>
     <use style="stroke:#000000;" x="334.633846" xlink:href="#m60171b5170" y="136.974572"/>
     <use style="stroke:#000000;" x="339.784615" xlink:href="#m60171b5170" y="135.594199"/>
     <use style="stroke:#000000;" x="344.935385" xlink:href="#m60171b5170" y="134.300529"/>
     <use style="stroke:#000000;" x="350.086154" xlink:href="#m60171b5170" y="133.087974"/>
     <use style="stroke:#000000;" x="355.236923" xlink:href="#m60171b5170" y="131.951326"/>
     <use style="stroke:#000000;" x="360.387692" xlink:href="#m60171b5170" y="130.885727"/>
     <use style="stroke:#000000;" x="365.538462" xlink:href="#m60171b5170" y="129.886643"/>
     <use style="stroke:#000000;" x="370.689231" xlink:href="#m60171b5170" y="128.949839"/>
     <use style="stroke:#000000;" x="375.84" xlink:href="#m60171b5170" y="128.071362"/>
     <use style="stroke:#000000;" x="380.990769" xlink:href="#m60171b5170" y="127.247509"/>
     <use style="stroke:#000000;" x="386.141538" xlink:href="#m60171b5170" y="126.474792"/>
     <use style="stroke:#000000;" x="391.292308" xlink:href="#m60171b5170" y="125.749976"/>
     <use style="stroke:#000000;" x="396.443077" xlink:href="#m60171b5170" y="125.070063"/>
     <use style="stroke:#000000;" x="401.593846" xlink:href="#m60171b5170" y="124.432254"/>
     <use style="stroke:#000000;" x="406.744615" xlink:href="#m60171b5170" y="123.833895"/>
     <use style="stroke:#000000;" x="411.895385" xlink:href="#m60171b5170" y="123.272505"/>
     <use style="stroke:#000000;" x="417.046154" xlink:href="#m60171b5170" y="122.745774"/>
     <use style="stroke:#000000;" x="422.196923" xlink:href="#m60171b5170" y="122.251542"/>
     <use style="stroke:#000000;" x="427.347692" xlink:href="#m60171b5170" y="121.787795"/>
     <use style="stroke:#000000;" x="432.498462" xlink:href="#m60171b5170" y="121.352642"/>
     <use style="stroke:#000000;" x="437.649231" xlink:href="#m60171b5170" y="120.944299"/>
     <use style="stroke:#000000;" x="442.8" xlink:href="#m60171b5170" y="120.561096"/>
     <use style="stroke:#000000;" x="447.950769" xlink:href="#m60171b5170" y="120.201471"/>
     <use style="stroke:#000000;" x="453.101538" xlink:href="#m60171b5170" y="119.86396"/>
     <use style="stroke:#000000;" x="458.252308" xlink:href="#m60171b5170" y="119.547196"/>
     <use style="stroke:#000000;" x="463.403077" xlink:href="#m60171b5170" y="119.249895"/>
     <use style="stroke:#000000;" x="468.553846" xlink:href="#m60171b5170" y="118.970856"/>
     <use style="stroke:#000000;" x="473.704615" xlink:href="#m60171b5170" y="118.708952"/>
     <use style="stroke:#000000;" x="478.855385" xlink:href="#m60171b5170" y="118.463129"/>
     <use style="stroke:#000000;" x="484.006154" xlink:href="#m60171b5170" y="118.232396"/>
     <use style="stroke:#000000;" x="489.156923" xlink:href="#m60171b5170" y="118.015824"/>
     <use style="stroke:#000000;" x="494.307692" xlink:href="#m60171b5170" y="117.812539"/>
     <use style="stroke:#000000;" x="499.458462" xlink:href="#m60171b5170" y="117.621721"/>
     <use style="stroke:#000000;" x="504.609231" xlink:href="#m60171b5170" y="117.442602"/>
     <use style="stroke:#000000;" x="509.76" xlink:href="#m60171b5170" y="117.274462"/>
     <use style="stroke:#000000;" x="514.910769" xlink:href="#m60171b5170" y="117.116624"/>
     <use style="stroke:#000000;" x="520.061538" xlink:href="#m60171b5170" y="116.968455"/>
     <use style="stroke:#000000;" x="525.212308" xlink:href="#m60171b5170" y="116.82936"/>
     <use style="stroke:#000000;" x="530.363077" xlink:href="#m60171b5170" y="116.698783"/>
     <use style="stroke:#000000;" x="535.513846" xlink:href="#m60171b5170" y="116.5762"/>
     <use style="stroke:#000000;" x="540.664615" xlink:href="#m60171b5170" y="116.46112"/>
     <use style="stroke:#000000;" x="545.815385" xlink:href="#m60171b5170" y="116.353084"/>
     <use style="stroke:#000000;" x="550.966154" xlink:href="#m60171b5170" y="116.251658"/>
     <use style="stroke:#000000;" x="556.116923" xlink:href="#m60171b5170" y="116.156439"/>
     <use style="stroke:#000000;" x="561.267692" xlink:href="#m60171b5170" y="116.067044"/>
     <use style="stroke:#000000;" x="566.418462" xlink:href="#m60171b5170" y="115.983118"/>
     <use style="stroke:#000000;" x="571.569231" xlink:href="#m60171b5170" y="115.904326"/>
     <use style="stroke:#000000;" x="576.72" xlink:href="#m60171b5170" y="115.830352"/>
     <use style="stroke:#000000;" x="581.870769" xlink:href="#m60171b5170" y="115.760902"/>
     <use style="stroke:#000000;" x="587.021538" xlink:href="#m60171b5170" y="115.695699"/>
     <use style="stroke:#000000;" x="592.172308" xlink:href="#m60171b5170" y="115.634483"/>
     <use style="stroke:#000000;" x="597.323077" xlink:href="#m60171b5170" y="115.577009"/>
     <use style="stroke:#000000;" x="602.473846" xlink:href="#m60171b5170" y="115.52305"/>
     <use style="stroke:#000000;" x="607.624615" xlink:href="#m60171b5170" y="115.472389"/>
     <use style="stroke:#000000;" x="612.775385" xlink:href="#m60171b5170" y="115.424825"/>
     <use style="stroke:#000000;" x="617.926154" xlink:href="#m60171b5170" y="115.380168"/>
     <use style="stroke:#000000;" x="623.076923" xlink:href="#m60171b5170" y="115.338241"/>
     <use style="stroke:#000000;" x="628.227692" xlink:href="#m60171b5170" y="115.298877"/>
     <use style="stroke:#000000;" x="633.378462" xlink:href="#m60171b5170" y="115.261919"/>
     <use style="stroke:#000000;" x="638.529231" xlink:href="#m60171b5170" y="115.22722"/>
     <use style="stroke:#000000;" x="643.68" xlink:href="#m60171b5170" y="115.194641"/>
     <use style="stroke:#000000;" x="648.830769" xlink:href="#m60171b5170" y="115.164053"/>
     <use style="stroke:#000000;" x="653.981538" xlink:href="#m60171b5170" y="115.135335"/>
     <use style="stroke:#000000;" x="659.132308" xlink:href="#m60171b5170" y="115.108371"/>
     <use style="stroke:#000000;" x="664.283077" xlink:href="#m60171b5170" y="115.083056"/>
     <use style="stroke:#000000;" x="669.433846" xlink:href="#m60171b5170" y="115.059287"/>
     <use style="stroke:#000000;" x="674.584615" xlink:href="#m60171b5170" y="115.036971"/>
     <use style="stroke:#000000;" x="679.735385" xlink:href="#m60171b5170" y="115.016018"/>
     <use style="stroke:#000000;" x="684.886154" xlink:href="#m60171b5170" y="114.996346"/>
     <use style="stroke:#000000;" x="690.036923" xlink:href="#m60171b5170" y="114.977875"/>
     <use style="stroke:#000000;" x="695.187692" xlink:href="#m60171b5170" y="114.960534"/>
     <use style="stroke:#000000;" x="700.338462" xlink:href="#m60171b5170" y="114.944251"/>
     <use style="stroke:#000000;" x="705.489231" xlink:href="#m60171b5170" y="114.928964"/>
     <use style="stroke:#000000;" x="710.64" xlink:href="#m60171b5170" y="114.914611"/>
     <use style="stroke:#000000;" x="715.790769" xlink:href="#m60171b5170" y="114.901135"/>
     <use style="stroke:#000000;" x="720.941538" xlink:href="#m60171b5170" y="114.888482"/>
    </g>
   </g>
   <g id="matplotlib.axis_1">
    <g id="xtick_1"/>
    <g id="xtick_2"/>
    <g id="xtick_3"/>
    <g id="xtick_4"/>
    <g id="xtick_5"/>
    <g id="xtick_6"/>
    <g id="xtick_7"/>
   </g>
   <g id="matplotlib.axis_2">
    <g id="ytick_1"/>
    <g id="ytick_2"/>
    <g id="ytick_3"/>
    <g id="ytick_4"/>
    <g id="ytick_5"/>
    <g id="ytick_6"/>
    <g id="ytick_7"/>
    <g id="ytick_8"/>
    <g id="ytick_9"/>
   </g>
   <g id="patch_3">
    <path d="M 108 567 
L 108 77.76 
" style="fill:none;stroke:#000000;stroke-linecap:square;stroke-linejoin:miter;stroke-width:0.8;"/>
   </g>
   <g id="patch_4">
    <path d="M 777.6 567 
L 777.6 77.76 
" style="fill:none;stroke:#000000;stroke-linecap:square;stroke-linejoin:miter;stroke-width:0.8;"/>
   </g>
   <g id="patch_5">
    <path d="M 108 567 
L 777.6 567 
" style="fill:none;stroke:#000000;stroke-linecap:square;stroke-linejoin:miter;stroke-width:0.8;"/>
   </g>
   <g id="patch_6">
    <path d="M 108 77.76 
L 777.6 77.76 
" style="fill:none;stroke:#000000;stroke-linecap:square;stroke-linejoin:miter;stroke-width:0.8;"/>
   </g>
   <g id="text_1">
    <!-- Time -->
    <defs>
     <path d="M 62.203125 67.59375 
L 4.5 67.59375 
L 2.796875 45.59375 
L 4.59375 45.59375 
C 5.90625 62.125 7.296875 65 22.703125 65 
C 24.5 65 27.40625 65 28.203125 64.90625 
C 30.09375 64.609375 30.09375 63.40625 30.09375 61.125 
L 30.09375 7.171875 
C 30.09375 3.59375 29.796875 2.5 21.5 2.5 
L 18.703125 2.5 
L 18.703125 0 
C 23.5 0 28.5 0 33.40625 0 
C 38.296875 0 43.296875 0 48.09375 0 
L 48.09375 2.5 
L 45.296875 2.5 
C 37 2.5 36.703125 3.59375 36.703125 7.171875 
L 36.703125 61.125 
C 36.703125 63.3125 36.703125 64.515625 38.5 64.90625 
C 39.296875 65 42.203125 65 44 65 
C 59.296875 65 60.796875 62.125 62.09375 45.59375 
L 63.90625 45.59375 
z
" id="CMR17-84"/>
     <path d="M 15.5 61.078125 
C 15.5 63.265625 13.703125 65.15625 11.40625 65.15625 
C 9.203125 65.15625 7.296875 63.375 7.296875 61.078125 
C 7.296875 58.890625 9.09375 57 11.40625 57 
C 13.59375 57 15.5 58.796875 15.5 61.078125 
z
M 3.796875 42.28125 
L 3.796875 39.703125 
C 9.40625 39.703125 10.203125 39.09375 10.203125 34.328125 
L 10.203125 6.671875 
C 10.203125 2.875 9.796875 2.390625 3.40625 2.390625 
L 3.40625 -0.203125 
C 5.796875 0 10.09375 0 12.59375 0 
C 15 0 19.09375 0 21.40625 -0.203125 
L 21.40625 2.390625 
C 15.5 2.390625 15.296875 2.984375 15.296875 6.5625 
L 15.296875 43.375 
z
" id="CMR17-105"/>
     <path d="M 67.59375 30.203125 
C 67.59375 35.1875 66.703125 43.59375 54.796875 43.59375 
C 48 43.59375 43.296875 39 41.5 33.609375 
L 41.40625 33.609375 
C 40.203125 41.8125 34.296875 43.59375 28.703125 43.59375 
C 20.796875 43.59375 16.703125 37.5 15.203125 33.5 
L 15.09375 33.5 
L 15.09375 43.59375 
L 3.296875 42.5 
L 3.296875 39.90625 
C 9.203125 39.90625 10.09375 39.296875 10.09375 34.5 
L 10.09375 6.6875 
C 10.09375 2.875 9.703125 2.390625 3.296875 2.390625 
L 3.296875 -0.203125 
C 5.703125 0 10.09375 0 12.703125 0 
C 15.296875 0 19.796875 0 22.203125 -0.203125 
L 22.203125 2.390625 
C 15.796875 2.390625 15.40625 2.78125 15.40625 6.6875 
L 15.40625 25.90625 
C 15.40625 35.109375 21 42 28 42 
C 35.40625 42 36.203125 35.40625 36.203125 30.59375 
L 36.203125 6.6875 
C 36.203125 2.875 35.796875 2.390625 29.40625 2.390625 
L 29.40625 -0.203125 
C 31.796875 0 36.203125 0 38.796875 0 
C 41.40625 0 45.90625 0 48.296875 -0.203125 
L 48.296875 2.390625 
C 41.90625 2.390625 41.5 2.78125 41.5 6.6875 
L 41.5 25.90625 
C 41.5 35.109375 47.09375 42 54.09375 42 
C 61.5 42 62.296875 35.40625 62.296875 30.59375 
L 62.296875 6.6875 
C 62.296875 2.875 61.90625 2.390625 55.5 2.390625 
L 55.5 -0.203125 
C 57.90625 0 62.296875 0 64.90625 0 
C 67.5 0 72 0 74.40625 -0.203125 
L 74.40625 2.390625 
C 68 2.390625 67.59375 2.78125 67.59375 6.6875 
z
" id="CMR17-109"/>
     <path d="M 38.09375 23 
C 38.5 23.40625 38.5 23.609375 38.5 24.625 
C 38.5 34.96875 33.09375 44 21.703125 44 
C 11.09375 44 2.703125 33.890625 2.703125 21.609375 
C 2.703125 8.609375 12.203125 -1 22.796875 -1 
C 34 -1 38.40625 9.484375 38.40625 11.5625 
C 38.40625 12.25 37.796875 12.25 37.59375 12.25 
C 36.90625 12.25 36.796875 12.046875 36.40625 10.875 
C 34.203125 4.140625 28.703125 0.796875 23.5 0.796875 
C 19.203125 0.796875 14.90625 3.171875 12.203125 7.5 
C 9.09375 12.546875 9.09375 18.375 9.09375 23 
z
M 9.203125 24.5 
C 9.90625 39.140625 17.59375 42.40625 21.59375 42.40625 
C 28.40625 42.40625 33 35.890625 33.09375 24.5 
z
" id="CMR17-101"/>
    </defs>
    <g transform="translate(782.750769 567)scale(0.22 -0.22)">
     <use transform="scale(0.996264)" xlink:href="#CMR17-84"/>
     <use transform="translate(66.509881 0)scale(0.996264)" xlink:href="#CMR17-105"/>
     <use transform="translate(91.380939 0)scale(0.996264)" xlink:href="#CMR17-109"/>
     <use transform="translate(168.300529 0)scale(0.996264)" xlink:href="#CMR17-101"/>
    </g>
   </g>
   <g id="text_2">
    <!-- $m_{t}^{e}$ -->
    <defs>
     <path d="M 20.59375 29.234375 
C 20.796875 29.84375 23.296875 34.828125 27 38.015625 
C 29.59375 40.40625 33 42.015625 36.90625 42.015625 
C 40.90625 42.015625 42.296875 39.015625 42.296875 35.03125 
C 42.296875 34.421875 42.296875 32.4375 41.09375 27.734375 
L 38.59375 17.46875 
C 37.796875 14.46875 35.90625 7.078125 35.703125 5.984375 
C 35.296875 4.484375 34.703125 1.890625 34.703125 1.5 
C 34.703125 0.09375 35.796875 -1 37.296875 -1 
C 40.296875 -1 40.796875 1.296875 41.703125 4.890625 
L 47.703125 28.734375 
C 47.90625 29.53125 53.09375 42.015625 64.09375 42.015625 
C 68.09375 42.015625 69.5 39.015625 69.5 35.03125 
C 69.5 29.4375 65.59375 18.5625 63.40625 12.578125 
C 62.5 10.171875 62 8.875 62 7.078125 
C 62 2.59375 65.09375 -1 69.90625 -1 
C 79.203125 -1 82.703125 13.671875 82.703125 14.265625 
C 82.703125 14.765625 82.296875 15.171875 81.703125 15.171875 
C 80.796875 15.171875 80.703125 14.875 80.203125 13.171875 
C 77.90625 5.1875 74.203125 1 70.203125 1 
C 69.203125 1 67.59375 1 67.59375 4.203125 
C 67.59375 6.8125 68.796875 10 69.203125 11.09375 
C 71 15.90625 75.5 27.703125 75.5 33.515625 
C 75.5 39.5 72 44 64.40625 44 
C 57.703125 44 52.296875 40.21875 48.296875 34.328125 
C 48 39.71875 44.703125 44 37.203125 44 
C 28.296875 44 23.59375 37.734375 21.796875 35.234375 
C 21.5 40.90625 17.40625 44 13 44 
C 10.09375 44 7.796875 42.609375 5.90625 38.8125 
C 4.09375 35.21875 2.703125 29.140625 2.703125 28.734375 
C 2.703125 28.34375 3.09375 27.84375 3.796875 27.84375 
C 4.59375 27.84375 4.703125 27.9375 5.296875 30.234375 
C 6.796875 36.125 8.703125 42.015625 12.703125 42.015625 
C 15 42.015625 15.796875 40.40625 15.796875 37.421875 
C 15.796875 35.21875 14.796875 31.328125 14.09375 28.234375 
L 11.296875 17.46875 
C 10.90625 15.5625 9.796875 11.078125 9.296875 9.28125 
C 8.59375 6.6875 7.5 2 7.5 1.5 
C 7.5 0.09375 8.59375 -1 10.09375 -1 
C 11.296875 -1 12.703125 -0.40625 13.5 1.09375 
C 13.703125 1.59375 14.59375 5.09375 15.09375 7.078125 
L 17.296875 16.0625 
z
" id="CMMI12-109"/>
     <path d="M 17.90625 23.109375 
C 20.59375 23.109375 27.40625 23.109375 32.203125 24.921875 
C 39.796875 27.859375 40.5 33.71875 40.5 35.53125 
C 40.5 39.96875 36.703125 44 30.09375 44 
C 19.59375 44 4.5 34.53125 4.5 16.765625 
C 4.5 6.28125 10.5 -1 19.59375 -1 
C 33.203125 -1 41.796875 9.515625 41.796875 10.8125 
C 41.796875 11.40625 41.203125 11.90625 40.796875 11.90625 
C 40.5 11.90625 40.40625 11.8125 39.5 10.921875 
C 33.09375 2.484375 23.59375 1 19.796875 1 
C 14.09375 1 11.09375 5.46875 11.09375 12.84375 
C 11.09375 14.234375 11.09375 16.734375 12.59375 23.109375 
z
M 13.09375 25 
C 17.40625 40.5 26.90625 42.015625 30.09375 42.015625 
C 34.5 42.015625 37.5 39.40625 37.5 35.578125 
C 37.5 25 21.5 25 17.296875 25 
z
" id="CMMI12-101"/>
     <path d="M 20.09375 40.09375 
L 29.296875 40.09375 
C 31.203125 40.09375 32.203125 40.09375 32.203125 41.890625 
C 32.203125 43 31.59375 43 29.59375 43 
L 20.796875 43 
L 24.5 57.6875 
C 24.90625 59.078125 24.90625 59.28125 24.90625 60 
C 24.90625 61.609375 23.59375 62.5 22.296875 62.5 
C 21.5 62.5 19.203125 62.203125 18.40625 58.984375 
L 14.5 43 
L 5.09375 43 
C 3.09375 43 2.203125 43 2.203125 41.09375 
C 2.203125 40.09375 2.90625 40.09375 4.796875 40.09375 
L 13.703125 40.09375 
L 7.09375 13.765625 
C 6.296875 10.28125 6 9.28125 6 7.984375 
C 6 3.296875 9.296875 -1 14.90625 -1 
C 25 -1 30.40625 13.5625 30.40625 14.25 
C 30.40625 14.859375 30 15.15625 29.40625 15.15625 
C 29.203125 15.15625 28.796875 15.15625 28.59375 14.75 
C 28.5 14.65625 28.40625 14.546875 27.703125 12.953125 
C 25.59375 7.984375 21 1 15.203125 1 
C 12.203125 1 12 3.5 12 5.6875 
C 12 5.78125 12 7.6875 12.296875 8.875 
z
" id="CMMI12-116"/>
    </defs>
    <g transform="translate(108 71.6445)scale(0.22 -0.22)">
     <use transform="translate(0 24.62935)scale(0.996264)" xlink:href="#CMMI12-109"/>
     <use transform="translate(85.327224 60.782989)scale(0.697382)" xlink:href="#CMMI12-101"/>
     <use transform="translate(85.327224 0)scale(0.697382)" xlink:href="#CMMI12-116"/>
    </g>
   </g>
   <g id="text_3">
    <!-- 0 -->
    <defs>
     <path d="M 42 31.640625 
C 42 37.75 41.90625 48.125 37.703125 56.109375 
C 34 63.109375 28.09375 65.59375 22.90625 65.59375 
C 18.09375 65.59375 12 63.40625 8.203125 56.203125 
C 4.203125 48.71875 3.796875 39.4375 3.796875 31.640625 
C 3.796875 25.953125 3.90625 17.28125 7 9.671875 
C 11.296875 -0.609375 19 -2 22.90625 -2 
C 27.5 -2 34.5 -0.109375 38.59375 9.375 
C 41.59375 16.28125 42 24.359375 42 31.640625 
z
M 22.90625 -0.40625 
C 16.5 -0.40625 12.703125 5.078125 11.296875 12.6875 
C 10.203125 18.5625 10.203125 27.15625 10.203125 32.75 
C 10.203125 40.4375 10.203125 46.828125 11.5 52.921875 
C 13.40625 61.390625 19 64 22.90625 64 
C 27 64 32.296875 61.296875 34.203125 53.125 
C 35.5 47.4375 35.59375 40.734375 35.59375 32.75 
C 35.59375 26.25 35.59375 18.265625 34.40625 12.375 
C 32.296875 1.484375 26.40625 -0.40625 22.90625 -0.40625 
z
" id="CMR17-48"/>
    </defs>
    <g transform="translate(211.015385 588.40425)scale(0.22 -0.22)">
     <use transform="scale(0.996264)" xlink:href="#CMR17-48"/>
    </g>
   </g>
  </g>
 </g>
 <defs>
  <clipPath id="pf07558d6cb">
   <rect height="489.24" width="669.6" x="108" y="77.76"/>
  </clipPath>
 </defs>
</svg>
