<?xml version="1.0" encoding="utf-8" standalone="no"?>
<!DOCTYPE svg PUBLIC "-//W3C//DTD SVG 1.1//EN"
  "http://www.w3.org/Graphics/SVG/1.1/DTD/svg11.dtd">
<!-- Created with matplotlib (https://matplotlib.org/) -->
<svg height="648pt" version="1.1" viewBox="0 0 864 648" width="864pt" xmlns="http://www.w3.org/2000/svg" xmlns:xlink="http://www.w3.org/1999/xlink">
 <defs>
  <style type="text/css">
*{stroke-linecap:butt;stroke-linejoin:round;}
  </style>
 </defs>
 <g id="figure_1">
  <g id="patch_1">
   <path d="M 0 648 
L 864 648 
L 864 0 
L 0 0 
z
" style="fill:#ffffff;"/>
  </g>
  <g id="axes_1">
   <g id="patch_2">
    <path d="M 108 567 
L 777.6 567 
L 777.6 77.76 
L 108 77.76 
z
" style="fill:#ffffff;"/>
   </g>
   <g id="PathCollection_1">
    <defs>
     <path d="M 0 1.224745 
C 0.324806 1.224745 0.636353 1.095698 0.866025 0.866025 
C 1.095698 0.636353 1.224745 0.324806 1.224745 0 
C 1.224745 -0.324806 1.095698 -0.636353 0.866025 -0.866025 
C 0.636353 -1.095698 0.324806 -1.224745 0 -1.224745 
C -0.324806 -1.224745 -0.636353 -1.095698 -0.866025 -0.866025 
C -1.095698 -0.636353 -1.224745 -0.324806 -1.224745 0 
C -1.224745 0.324806 -1.095698 0.636353 -0.866025 0.866025 
C -0.636353 1.095698 -0.324806 1.224745 0 1.224745 
z
" id="m9d1eca6c7b" style="stroke:#000000;"/>
    </defs>
    <g clip-path="url(#pe72d48eff2)">
     <use style="stroke:#000000;" x="133.753846" xlink:href="#m9d1eca6c7b" y="116.727752"/>
     <use style="stroke:#000000;" x="138.904615" xlink:href="#m9d1eca6c7b" y="116.727752"/>
     <use style="stroke:#000000;" x="144.055385" xlink:href="#m9d1eca6c7b" y="116.727752"/>
     <use style="stroke:#000000;" x="149.206154" xlink:href="#m9d1eca6c7b" y="116.727752"/>
     <use style="stroke:#000000;" x="154.356923" xlink:href="#m9d1eca6c7b" y="116.727752"/>
     <use style="stroke:#000000;" x="159.507692" xlink:href="#m9d1eca6c7b" y="116.727752"/>
     <use style="stroke:#000000;" x="164.658462" xlink:href="#m9d1eca6c7b" y="116.727752"/>
     <use style="stroke:#000000;" x="169.809231" xlink:href="#m9d1eca6c7b" y="116.727752"/>
     <use style="stroke:#000000;" x="174.96" xlink:href="#m9d1eca6c7b" y="116.727752"/>
     <use style="stroke:#000000;" x="180.110769" xlink:href="#m9d1eca6c7b" y="116.727752"/>
     <use style="stroke:#000000;" x="185.261538" xlink:href="#m9d1eca6c7b" y="116.727752"/>
     <use style="stroke:#000000;" x="190.412308" xlink:href="#m9d1eca6c7b" y="116.727752"/>
     <use style="stroke:#000000;" x="195.563077" xlink:href="#m9d1eca6c7b" y="116.727752"/>
     <use style="stroke:#000000;" x="200.713846" xlink:href="#m9d1eca6c7b" y="116.727752"/>
     <use style="stroke:#000000;" x="205.864615" xlink:href="#m9d1eca6c7b" y="116.727752"/>
     <use style="stroke:#000000;" x="211.015385" xlink:href="#m9d1eca6c7b" y="182.318444"/>
     <use style="stroke:#000000;" x="216.166154" xlink:href="#m9d1eca6c7b" y="186.59047"/>
     <use style="stroke:#000000;" x="221.316923" xlink:href="#m9d1eca6c7b" y="190.433168"/>
     <use style="stroke:#000000;" x="226.467692" xlink:href="#m9d1eca6c7b" y="193.758384"/>
     <use style="stroke:#000000;" x="231.618462" xlink:href="#m9d1eca6c7b" y="196.733512"/>
     <use style="stroke:#000000;" x="236.769231" xlink:href="#m9d1eca6c7b" y="199.440918"/>
     <use style="stroke:#000000;" x="241.92" xlink:href="#m9d1eca6c7b" y="201.908961"/>
     <use style="stroke:#000000;" x="247.070769" xlink:href="#m9d1eca6c7b" y="204.162478"/>
     <use style="stroke:#000000;" x="252.221538" xlink:href="#m9d1eca6c7b" y="206.223285"/>
     <use style="stroke:#000000;" x="257.372308" xlink:href="#m9d1eca6c7b" y="208.110601"/>
     <use style="stroke:#000000;" x="262.523077" xlink:href="#m9d1eca6c7b" y="209.841407"/>
     <use style="stroke:#000000;" x="267.673846" xlink:href="#m9d1eca6c7b" y="211.430744"/>
     <use style="stroke:#000000;" x="272.824615" xlink:href="#m9d1eca6c7b" y="212.891968"/>
     <use style="stroke:#000000;" x="277.975385" xlink:href="#m9d1eca6c7b" y="214.236969"/>
     <use style="stroke:#000000;" x="283.126154" xlink:href="#m9d1eca6c7b" y="215.476352"/>
     <use style="stroke:#000000;" x="288.276923" xlink:href="#m9d1eca6c7b" y="216.619601"/>
     <use style="stroke:#000000;" x="293.427692" xlink:href="#m9d1eca6c7b" y="217.675212"/>
     <use style="stroke:#000000;" x="298.578462" xlink:href="#m9d1eca6c7b" y="218.650814"/>
     <use style="stroke:#000000;" x="303.729231" xlink:href="#m9d1eca6c7b" y="219.553267"/>
     <use style="stroke:#000000;" x="308.88" xlink:href="#m9d1eca6c7b" y="220.388754"/>
     <use style="stroke:#000000;" x="314.030769" xlink:href="#m9d1eca6c7b" y="221.162858"/>
     <use style="stroke:#000000;" x="319.181538" xlink:href="#m9d1eca6c7b" y="221.880625"/>
     <use style="stroke:#000000;" x="324.332308" xlink:href="#m9d1eca6c7b" y="222.546626"/>
     <use style="stroke:#000000;" x="329.483077" xlink:href="#m9d1eca6c7b" y="223.165011"/>
     <use style="stroke:#000000;" x="334.633846" xlink:href="#m9d1eca6c7b" y="223.739547"/>
     <use style="stroke:#000000;" x="339.784615" xlink:href="#m9d1eca6c7b" y="224.273663"/>
     <use style="stroke:#000000;" x="344.935385" xlink:href="#m9d1eca6c7b" y="224.770486"/>
     <use style="stroke:#000000;" x="350.086154" xlink:href="#m9d1eca6c7b" y="225.232865"/>
     <use style="stroke:#000000;" x="355.236923" xlink:href="#m9d1eca6c7b" y="225.663408"/>
     <use style="stroke:#000000;" x="360.387692" xlink:href="#m9d1eca6c7b" y="226.064497"/>
     <use style="stroke:#000000;" x="365.538462" xlink:href="#m9d1eca6c7b" y="226.438317"/>
     <use style="stroke:#000000;" x="370.689231" xlink:href="#m9d1eca6c7b" y="226.78687"/>
     <use style="stroke:#000000;" x="375.84" xlink:href="#m9d1eca6c7b" y="227.285805"/>
     <use style="stroke:#000000;" x="380.990769" xlink:href="#m9d1eca6c7b" y="227.747373"/>
     <use style="stroke:#000000;" x="386.141538" xlink:href="#m9d1eca6c7b" y="228.023009"/>
     <use style="stroke:#000000;" x="391.292308" xlink:href="#m9d1eca6c7b" y="228.143176"/>
     <use style="stroke:#000000;" x="396.443077" xlink:href="#m9d1eca6c7b" y="228.377035"/>
     <use style="stroke:#000000;" x="401.593846" xlink:href="#m9d1eca6c7b" y="228.73506"/>
     <use style="stroke:#000000;" x="406.744615" xlink:href="#m9d1eca6c7b" y="229.005955"/>
     <use style="stroke:#000000;" x="411.895385" xlink:href="#m9d1eca6c7b" y="229.202912"/>
     <use style="stroke:#000000;" x="417.046154" xlink:href="#m9d1eca6c7b" y="229.337355"/>
     <use style="stroke:#000000;" x="422.196923" xlink:href="#m9d1eca6c7b" y="229.41917"/>
     <use style="stroke:#000000;" x="427.347692" xlink:href="#m9d1eca6c7b" y="229.58354"/>
     <use style="stroke:#000000;" x="432.498462" xlink:href="#m9d1eca6c7b" y="229.817823"/>
     <use style="stroke:#000000;" x="437.649231" xlink:href="#m9d1eca6c7b" y="230.016753"/>
     <use style="stroke:#000000;" x="442.8" xlink:href="#m9d1eca6c7b" y="230.185014"/>
     <use style="stroke:#000000;" x="447.950769" xlink:href="#m9d1eca6c7b" y="230.326699"/>
     <use style="stroke:#000000;" x="453.101538" xlink:href="#m9d1eca6c7b" y="230.445382"/>
     <use style="stroke:#000000;" x="458.252308" xlink:href="#m9d1eca6c7b" y="230.544183"/>
     <use style="stroke:#000000;" x="463.403077" xlink:href="#m9d1eca6c7b" y="230.625825"/>
     <use style="stroke:#000000;" x="468.553846" xlink:href="#m9d1eca6c7b" y="230.692686"/>
     <use style="stroke:#000000;" x="473.704615" xlink:href="#m9d1eca6c7b" y="230.746837"/>
     <use style="stroke:#000000;" x="478.855385" xlink:href="#m9d1eca6c7b" y="230.790083"/>
     <use style="stroke:#000000;" x="484.006154" xlink:href="#m9d1eca6c7b" y="230.884847"/>
     <use style="stroke:#000000;" x="489.156923" xlink:href="#m9d1eca6c7b" y="230.995027"/>
     <use style="stroke:#000000;" x="494.307692" xlink:href="#m9d1eca6c7b" y="231.094852"/>
     <use style="stroke:#000000;" x="499.458462" xlink:href="#m9d1eca6c7b" y="231.185386"/>
     <use style="stroke:#000000;" x="504.609231" xlink:href="#m9d1eca6c7b" y="231.267577"/>
     <use style="stroke:#000000;" x="509.76" xlink:href="#m9d1eca6c7b" y="231.342271"/>
     <use style="stroke:#000000;" x="514.910769" xlink:href="#m9d1eca6c7b" y="231.41022"/>
     <use style="stroke:#000000;" x="520.061538" xlink:href="#m9d1eca6c7b" y="231.472097"/>
     <use style="stroke:#000000;" x="525.212308" xlink:href="#m9d1eca6c7b" y="231.5285"/>
     <use style="stroke:#000000;" x="530.363077" xlink:href="#m9d1eca6c7b" y="231.579966"/>
     <use style="stroke:#000000;" x="535.513846" xlink:href="#m9d1eca6c7b" y="231.626973"/>
     <use style="stroke:#000000;" x="540.664615" xlink:href="#m9d1eca6c7b" y="231.669951"/>
     <use style="stroke:#000000;" x="545.815385" xlink:href="#m9d1eca6c7b" y="231.709283"/>
     <use style="stroke:#000000;" x="550.966154" xlink:href="#m9d1eca6c7b" y="231.745313"/>
     <use style="stroke:#000000;" x="556.116923" xlink:href="#m9d1eca6c7b" y="231.77835"/>
     <use style="stroke:#000000;" x="561.267692" xlink:href="#m9d1eca6c7b" y="231.80867"/>
     <use style="stroke:#000000;" x="566.418462" xlink:href="#m9d1eca6c7b" y="231.836522"/>
     <use style="stroke:#000000;" x="571.569231" xlink:href="#m9d1eca6c7b" y="231.862131"/>
     <use style="stroke:#000000;" x="576.72" xlink:href="#m9d1eca6c7b" y="231.885697"/>
     <use style="stroke:#000000;" x="581.870769" xlink:href="#m9d1eca6c7b" y="231.907403"/>
     <use style="stroke:#000000;" x="587.021538" xlink:href="#m9d1eca6c7b" y="231.927411"/>
     <use style="stroke:#000000;" x="592.172308" xlink:href="#m9d1eca6c7b" y="231.94587"/>
     <use style="stroke:#000000;" x="597.323077" xlink:href="#m9d1eca6c7b" y="231.962913"/>
     <use style="stroke:#000000;" x="602.473846" xlink:href="#m9d1eca6c7b" y="231.97866"/>
     <use style="stroke:#000000;" x="607.624615" xlink:href="#m9d1eca6c7b" y="231.993222"/>
     <use style="stroke:#000000;" x="612.775385" xlink:href="#m9d1eca6c7b" y="232.006696"/>
     <use style="stroke:#000000;" x="617.926154" xlink:href="#m9d1eca6c7b" y="232.019173"/>
     <use style="stroke:#000000;" x="623.076923" xlink:href="#m9d1eca6c7b" y="232.030735"/>
     <use style="stroke:#000000;" x="628.227692" xlink:href="#m9d1eca6c7b" y="232.041455"/>
     <use style="stroke:#000000;" x="633.378462" xlink:href="#m9d1eca6c7b" y="232.051401"/>
     <use style="stroke:#000000;" x="638.529231" xlink:href="#m9d1eca6c7b" y="232.060635"/>
     <use style="stroke:#000000;" x="643.68" xlink:href="#m9d1eca6c7b" y="232.069212"/>
     <use style="stroke:#000000;" x="648.830769" xlink:href="#m9d1eca6c7b" y="232.077183"/>
     <use style="stroke:#000000;" x="653.981538" xlink:href="#m9d1eca6c7b" y="232.084595"/>
     <use style="stroke:#000000;" x="659.132308" xlink:href="#m9d1eca6c7b" y="232.091491"/>
     <use style="stroke:#000000;" x="664.283077" xlink:href="#m9d1eca6c7b" y="232.09791"/>
     <use style="stroke:#000000;" x="669.433846" xlink:href="#m9d1eca6c7b" y="232.103888"/>
     <use style="stroke:#000000;" x="674.584615" xlink:href="#m9d1eca6c7b" y="232.109457"/>
     <use style="stroke:#000000;" x="679.735385" xlink:href="#m9d1eca6c7b" y="232.114647"/>
     <use style="stroke:#000000;" x="684.886154" xlink:href="#m9d1eca6c7b" y="232.119487"/>
     <use style="stroke:#000000;" x="690.036923" xlink:href="#m9d1eca6c7b" y="232.124001"/>
     <use style="stroke:#000000;" x="695.187692" xlink:href="#m9d1eca6c7b" y="232.128213"/>
     <use style="stroke:#000000;" x="700.338462" xlink:href="#m9d1eca6c7b" y="232.132145"/>
     <use style="stroke:#000000;" x="705.489231" xlink:href="#m9d1eca6c7b" y="232.135816"/>
     <use style="stroke:#000000;" x="710.64" xlink:href="#m9d1eca6c7b" y="232.139245"/>
     <use style="stroke:#000000;" x="715.790769" xlink:href="#m9d1eca6c7b" y="232.142449"/>
     <use style="stroke:#000000;" x="720.941538" xlink:href="#m9d1eca6c7b" y="232.145443"/>
    </g>
   </g>
   <g id="patch_3">
    <path clip-path="url(#pe72d48eff2)" d="M 417.046154 371.304 
L 419.621538 376.1964 
L 417.048729 376.1964 
L 417.048729 395.766 
L 417.043578 395.766 
L 417.043578 376.1964 
L 414.470769 376.1964 
z
" style="stroke:#000000;stroke-linejoin:miter;"/>
   </g>
   <g id="matplotlib.axis_1">
    <g id="xtick_1"/>
    <g id="xtick_2"/>
    <g id="xtick_3"/>
    <g id="xtick_4"/>
    <g id="xtick_5"/>
    <g id="xtick_6"/>
    <g id="xtick_7"/>
   </g>
   <g id="matplotlib.axis_2">
    <g id="ytick_1"/>
    <g id="ytick_2"/>
    <g id="ytick_3"/>
    <g id="ytick_4"/>
    <g id="ytick_5"/>
    <g id="ytick_6"/>
   </g>
   <g id="line2d_1">
    <path clip-path="url(#pe72d48eff2)" d="M 133.753846 368.733557 
L 726.092308 368.733557 
" style="fill:none;stroke:#000000;stroke-dasharray:5.55,2.4;stroke-dashoffset:0;stroke-width:1.5;"/>
   </g>
   <g id="patch_4">
    <path d="M 108 567 
L 108 77.76 
" style="fill:none;stroke:#000000;stroke-linecap:square;stroke-linejoin:miter;stroke-width:0.8;"/>
   </g>
   <g id="patch_5">
    <path d="M 777.6 567 
L 777.6 77.76 
" style="fill:none;stroke:#000000;stroke-linecap:square;stroke-linejoin:miter;stroke-width:0.8;"/>
   </g>
   <g id="patch_6">
    <path d="M 108 567 
L 777.6 567 
" style="fill:none;stroke:#000000;stroke-linecap:square;stroke-linejoin:miter;stroke-width:0.8;"/>
   </g>
   <g id="patch_7">
    <path d="M 108 77.76 
L 777.6 77.76 
" style="fill:none;stroke:#000000;stroke-linecap:square;stroke-linejoin:miter;stroke-width:0.8;"/>
   </g>
   <g id="text_1">
    <!-- Time -->
    <defs>
     <path d="M 62.203125 67.59375 
L 4.5 67.59375 
L 2.796875 45.59375 
L 4.59375 45.59375 
C 5.90625 62.125 7.296875 65 22.703125 65 
C 24.5 65 27.40625 65 28.203125 64.90625 
C 30.09375 64.609375 30.09375 63.40625 30.09375 61.125 
L 30.09375 7.171875 
C 30.09375 3.59375 29.796875 2.5 21.5 2.5 
L 18.703125 2.5 
L 18.703125 0 
C 23.5 0 28.5 0 33.40625 0 
C 38.296875 0 43.296875 0 48.09375 0 
L 48.09375 2.5 
L 45.296875 2.5 
C 37 2.5 36.703125 3.59375 36.703125 7.171875 
L 36.703125 61.125 
C 36.703125 63.3125 36.703125 64.515625 38.5 64.90625 
C 39.296875 65 42.203125 65 44 65 
C 59.296875 65 60.796875 62.125 62.09375 45.59375 
L 63.90625 45.59375 
z
" id="CMR17-84"/>
     <path d="M 15.5 61.078125 
C 15.5 63.265625 13.703125 65.15625 11.40625 65.15625 
C 9.203125 65.15625 7.296875 63.375 7.296875 61.078125 
C 7.296875 58.890625 9.09375 57 11.40625 57 
C 13.59375 57 15.5 58.796875 15.5 61.078125 
z
M 3.796875 42.28125 
L 3.796875 39.703125 
C 9.40625 39.703125 10.203125 39.09375 10.203125 34.328125 
L 10.203125 6.671875 
C 10.203125 2.875 9.796875 2.390625 3.40625 2.390625 
L 3.40625 -0.203125 
C 5.796875 0 10.09375 0 12.59375 0 
C 15 0 19.09375 0 21.40625 -0.203125 
L 21.40625 2.390625 
C 15.5 2.390625 15.296875 2.984375 15.296875 6.5625 
L 15.296875 43.375 
z
" id="CMR17-105"/>
     <path d="M 67.59375 30.203125 
C 67.59375 35.1875 66.703125 43.59375 54.796875 43.59375 
C 48 43.59375 43.296875 39 41.5 33.609375 
L 41.40625 33.609375 
C 40.203125 41.8125 34.296875 43.59375 28.703125 43.59375 
C 20.796875 43.59375 16.703125 37.5 15.203125 33.5 
L 15.09375 33.5 
L 15.09375 43.59375 
L 3.296875 42.5 
L 3.296875 39.90625 
C 9.203125 39.90625 10.09375 39.296875 10.09375 34.5 
L 10.09375 6.6875 
C 10.09375 2.875 9.703125 2.390625 3.296875 2.390625 
L 3.296875 -0.203125 
C 5.703125 0 10.09375 0 12.703125 0 
C 15.296875 0 19.796875 0 22.203125 -0.203125 
L 22.203125 2.390625 
C 15.796875 2.390625 15.40625 2.78125 15.40625 6.6875 
L 15.40625 25.90625 
C 15.40625 35.109375 21 42 28 42 
C 35.40625 42 36.203125 35.40625 36.203125 30.59375 
L 36.203125 6.6875 
C 36.203125 2.875 35.796875 2.390625 29.40625 2.390625 
L 29.40625 -0.203125 
C 31.796875 0 36.203125 0 38.796875 0 
C 41.40625 0 45.90625 0 48.296875 -0.203125 
L 48.296875 2.390625 
C 41.90625 2.390625 41.5 2.78125 41.5 6.6875 
L 41.5 25.90625 
C 41.5 35.109375 47.09375 42 54.09375 42 
C 61.5 42 62.296875 35.40625 62.296875 30.59375 
L 62.296875 6.6875 
C 62.296875 2.875 61.90625 2.390625 55.5 2.390625 
L 55.5 -0.203125 
C 57.90625 0 62.296875 0 64.90625 0 
C 67.5 0 72 0 74.40625 -0.203125 
L 74.40625 2.390625 
C 68 2.390625 67.59375 2.78125 67.59375 6.6875 
z
" id="CMR17-109"/>
     <path d="M 38.09375 23 
C 38.5 23.40625 38.5 23.609375 38.5 24.625 
C 38.5 34.96875 33.09375 44 21.703125 44 
C 11.09375 44 2.703125 33.890625 2.703125 21.609375 
C 2.703125 8.609375 12.203125 -1 22.796875 -1 
C 34 -1 38.40625 9.484375 38.40625 11.5625 
C 38.40625 12.25 37.796875 12.25 37.59375 12.25 
C 36.90625 12.25 36.796875 12.046875 36.40625 10.875 
C 34.203125 4.140625 28.703125 0.796875 23.5 0.796875 
C 19.203125 0.796875 14.90625 3.171875 12.203125 7.5 
C 9.09375 12.546875 9.09375 18.375 9.09375 23 
z
M 9.203125 24.5 
C 9.90625 39.140625 17.59375 42.40625 21.59375 42.40625 
C 28.40625 42.40625 33 35.890625 33.09375 24.5 
z
" id="CMR17-101"/>
    </defs>
    <g transform="translate(782.750769 567)scale(0.22 -0.22)">
     <use transform="scale(0.996264)" xlink:href="#CMR17-84"/>
     <use transform="translate(66.509881 0)scale(0.996264)" xlink:href="#CMR17-105"/>
     <use transform="translate(91.380939 0)scale(0.996264)" xlink:href="#CMR17-109"/>
     <use transform="translate(168.300529 0)scale(0.996264)" xlink:href="#CMR17-101"/>
    </g>
   </g>
   <g id="text_2">
    <!-- $\kappa_{t}$ -->
    <defs>
     <path d="M 21.296875 25 
C 24.59375 26.78125 28.296875 29.875 30.796875 31.96875 
C 36.796875 37.140625 39 38.734375 42.796875 40.21875 
C 42.40625 39.625 42.296875 38.828125 42.296875 38.140625 
C 42.296875 35.4375 44.59375 34.9375 45.59375 34.9375 
C 48.796875 34.9375 50.59375 37.921875 50.59375 39.8125 
C 50.59375 40.40625 50.40625 43 46.90625 43 
C 40.90625 43 35 37.984375 30.59375 34.34375 
C 24.796875 29.3125 21.90625 27.15625 17.796875 25.875 
L 21.59375 41.5 
C 21.59375 43.109375 20.296875 44 19 44 
C 18.09375 44 15.90625 43.703125 15.09375 40.5 
L 5.796875 3.5 
C 5.5 2.3125 5.5 2.09375 5.5 1.5 
C 5.5 0.09375 6.59375 -1 8.09375 -1 
C 11.09375 -1 11.703125 1.65625 12.203125 3.8125 
C 12.796875 5.9375 16.90625 23 17.09375 23 
C 29.796875 23 34.09375 19.75 34.09375 14.734375 
C 34.09375 14.015625 34.09375 13.71875 33.796875 12.59375 
C 33.40625 10.65625 33.40625 9.515625 33.40625 8.90625 
C 33.40625 2.78125 37.296875 -1 42.203125 -1 
C 46.296875 -1 48.59375 1.921875 50.09375 4.546875 
C 52.203125 8.484375 53.5 14.03125 53.5 14.421875 
C 53.5 14.9375 53.09375 15.328125 52.5 15.328125 
C 51.59375 15.328125 51.5 14.9375 51.09375 13.3125 
C 49.796875 8.46875 47.59375 1 42.5 1 
C 40.296875 1 39.203125 2.3125 39.203125 5.84375 
C 39.203125 7.78125 39.59375 10.015625 40 11.515625 
C 40.203125 12.53125 40.5 13.75 40.5 14.859375 
C 40.5 24.078125 27.90625 25 21.296875 25 
z
" id="CMMI12-20"/>
     <path d="M 20.09375 40.09375 
L 29.296875 40.09375 
C 31.203125 40.09375 32.203125 40.09375 32.203125 41.890625 
C 32.203125 43 31.59375 43 29.59375 43 
L 20.796875 43 
L 24.5 57.6875 
C 24.90625 59.078125 24.90625 59.28125 24.90625 60 
C 24.90625 61.609375 23.59375 62.5 22.296875 62.5 
C 21.5 62.5 19.203125 62.203125 18.40625 58.984375 
L 14.5 43 
L 5.09375 43 
C 3.09375 43 2.203125 43 2.203125 41.09375 
C 2.203125 40.09375 2.90625 40.09375 4.796875 40.09375 
L 13.703125 40.09375 
L 7.09375 13.765625 
C 6.296875 10.28125 6 9.28125 6 7.984375 
C 6 3.296875 9.296875 -1 14.90625 -1 
C 25 -1 30.40625 13.5625 30.40625 14.25 
C 30.40625 14.859375 30 15.15625 29.40625 15.15625 
C 29.203125 15.15625 28.796875 15.15625 28.59375 14.75 
C 28.5 14.65625 28.40625 14.546875 27.703125 12.953125 
C 25.59375 7.984375 21 1 15.203125 1 
C 12.203125 1 12 3.5 12 5.6875 
C 12 5.78125 12 7.6875 12.296875 8.875 
z
" id="CMMI12-116"/>
    </defs>
    <g transform="translate(108 67.9752)scale(0.15 -0.15)">
     <use transform="translate(0 14.943915)scale(0.996264)" xlink:href="#CMMI12-20"/>
     <use transform="translate(56.154624 0)scale(0.697382)" xlink:href="#CMMI12-116"/>
    </g>
   </g>
   <g id="text_3">
    <!-- 0 -->
    <defs>
     <path d="M 42 31.640625 
C 42 37.75 41.90625 48.125 37.703125 56.109375 
C 34 63.109375 28.09375 65.59375 22.90625 65.59375 
C 18.09375 65.59375 12 63.40625 8.203125 56.203125 
C 4.203125 48.71875 3.796875 39.4375 3.796875 31.640625 
C 3.796875 25.953125 3.90625 17.28125 7 9.671875 
C 11.296875 -0.609375 19 -2 22.90625 -2 
C 27.5 -2 34.5 -0.109375 38.59375 9.375 
C 41.59375 16.28125 42 24.359375 42 31.640625 
z
M 22.90625 -0.40625 
C 16.5 -0.40625 12.703125 5.078125 11.296875 12.6875 
C 10.203125 18.5625 10.203125 27.15625 10.203125 32.75 
C 10.203125 40.4375 10.203125 46.828125 11.5 52.921875 
C 13.40625 61.390625 19 64 22.90625 64 
C 27 64 32.296875 61.296875 34.203125 53.125 
C 35.5 47.4375 35.59375 40.734375 35.59375 32.75 
C 35.59375 26.25 35.59375 18.265625 34.40625 12.375 
C 32.296875 1.484375 26.40625 -0.40625 22.90625 -0.40625 
z
" id="CMR17-48"/>
    </defs>
    <g transform="translate(211.015385 591.462)scale(0.22 -0.22)">
     <use transform="scale(0.996264)" xlink:href="#CMR17-48"/>
    </g>
   </g>
   <g id="text_4">
    <!-- Perfect Foresight MPC -->
    <defs>
     <path d="M 19.796875 31.90625 
L 35.796875 31.90625 
C 48.703125 31.90625 58.09375 40.28125 58.09375 49.75 
C 58.09375 59.234375 48.90625 68 35.796875 68 
L 5.203125 68 
L 5.203125 65.40625 
C 12.09375 65.40625 13.203125 65.40625 13.203125 60.921875 
L 13.203125 6.96875 
C 13.203125 2.5 12.09375 2.5 5.203125 2.5 
L 5.203125 0 
C 8.09375 0 13.40625 0 16.5 0 
C 19.59375 0 24.90625 0 27.796875 0 
L 27.796875 2.5 
C 20.90625 2.5 19.796875 2.5 19.796875 6.96875 
z
M 19.59375 34 
L 19.59375 61.53125 
C 19.59375 64.921875 19.796875 65.40625 23.796875 65.40625 
L 33.90625 65.40625 
C 46.796875 65.40625 50.5 58.03125 50.5 49.75 
C 50.5 40.6875 46.09375 34 33.90625 34 
z
" id="CMR17-80"/>
     <path d="M 15 23.390625 
C 15 33 19.09375 42 26.59375 42 
C 27.296875 42 28 41.90625 28.703125 41.59375 
C 28.703125 41.59375 26.5 40.890625 26.5 38.3125 
C 26.5 35.90625 28.40625 34.90625 29.90625 34.90625 
C 31.09375 34.90625 33.296875 35.609375 33.296875 38.40625 
C 33.296875 41.609375 30.09375 43.59375 26.703125 43.59375 
C 19.09375 43.59375 15.796875 36.203125 14.796875 32.703125 
L 14.703125 32.703125 
L 14.703125 43.59375 
L 3.09375 42.5 
L 3.09375 39.90625 
C 9 39.90625 9.90625 39.296875 9.90625 34.5 
L 9.90625 6.6875 
C 9.90625 2.875 9.5 2.390625 3.09375 2.390625 
L 3.09375 -0.203125 
C 5.5 0 10.09375 0 12.703125 0 
C 15.59375 0 20.703125 0 23.40625 -0.203125 
L 23.40625 2.390625 
C 16.203125 2.390625 15 2.390625 15 6.875 
z
" id="CMR17-114"/>
     <path d="M 15.296875 40 
L 26.703125 40 
L 26.703125 42.578125 
L 15.09375 42.578125 
L 15.09375 54.59375 
C 15.09375 62.84375 19.296875 68 23.59375 68 
C 24.90625 68 26.40625 67.609375 27.40625 66.90625 
C 26.59375 66.703125 24.5 66.015625 24.5 63.546875 
C 24.5 60.953125 26.5 60.15625 27.90625 60.15625 
C 29.296875 60.15625 31.296875 60.953125 31.296875 63.546875 
C 31.296875 67.3125 27.703125 69.59375 23.703125 69.59375 
C 18 69.59375 10.203125 64.9375 10.203125 54.390625 
L 10.203125 42.578125 
L 2.203125 42.578125 
L 2.203125 40 
L 10.203125 40 
L 10.203125 6.671875 
C 10.203125 2.875 9.796875 2.390625 3.40625 2.390625 
L 3.40625 -0.203125 
C 5.796875 0 10.40625 0 13 0 
C 15.90625 0 21 0 23.703125 -0.203125 
L 23.703125 2.390625 
C 16.5 2.390625 15.296875 2.390625 15.296875 6.859375 
z
" id="CMR17-102"/>
     <path d="M 34.90625 35 
C 33 35 30.203125 35 30.203125 31.515625 
C 30.203125 28.71875 32.5 27.921875 33.796875 27.921875 
C 34.5 27.921875 37.40625 28.234375 37.40625 31.625 
C 37.40625 38.546875 30.59375 43.796875 22.90625 43.796875 
C 12.296875 43.796875 3.296875 34.03125 3.296875 21.296875 
C 3.296875 8.0625 12.703125 -1 22.90625 -1 
C 35.296875 -1 38.40625 10.578125 38.40625 11.6875 
C 38.40625 12.09375 38.296875 12.390625 37.59375 12.390625 
C 36.90625 12.390625 36.796875 12.296875 36.40625 10.984375 
C 33.796875 2.8125 28.09375 0.796875 23.796875 0.796875 
C 17.40625 0.796875 9.703125 6.671875 9.703125 21.390625 
C 9.703125 36.53125 17.09375 42 23 42 
C 26.90625 42 32.703125 40.203125 34.90625 35 
z
" id="CMR17-99"/>
     <path d="M 15.09375 40 
L 29.09375 40 
L 29.09375 42.578125 
L 15.09375 42.578125 
L 15.09375 61 
L 13.296875 61 
C 13.09375 50.703125 9.59375 41.6875 1.09375 41.6875 
L 1.09375 40 
L 9.796875 40 
L 9.796875 12.046875 
C 9.796875 10.15625 9.796875 -1 21.40625 -1 
C 27.296875 -1 30.703125 4.78125 30.703125 12.140625 
L 30.703125 17.8125 
L 28.90625 17.8125 
L 28.90625 12.234375 
C 28.90625 5.375 26.203125 0.796875 22 0.796875 
C 19.09375 0.796875 15.09375 2.78125 15.09375 11.84375 
z
" id="CMR17-116"/>
     <path d="M 54.40625 67.578125 
L 5.09375 67.578125 
L 5.09375 65 
C 12 65 13.09375 65 13.09375 60.53125 
L 13.09375 6.96875 
C 13.09375 2.5 12 2.5 5.09375 2.5 
L 5.09375 0 
C 8 0 13.59375 0 16.703125 0 
C 20.796875 0 25.59375 0 29.703125 0 
L 29.703125 2.5 
L 27.5 2.5 
C 19.90625 2.5 19.703125 3.484375 19.703125 7.0625 
L 19.703125 32.421875 
L 28.703125 32.421875 
C 38 32.421875 38.90625 29.140625 38.90625 20.8125 
L 40.703125 20.8125 
L 40.703125 46.671875 
L 38.90625 46.671875 
C 38.90625 38.28125 38 35 28.703125 35 
L 19.703125 35 
L 19.703125 61.109375 
C 19.703125 64.5 19.90625 65 23.90625 65 
L 36.796875 65 
C 51.90625 65 53.59375 58.828125 55 45.5625 
L 56.796875 45.5625 
z
" id="CMR17-70"/>
     <path d="M 43.09375 21.1875 
C 43.09375 34 33.796875 44 22.90625 44 
C 12 44 2.703125 34 2.703125 21.1875 
C 2.703125 8.609375 12 -1 22.90625 -1 
C 33.796875 -1 43.09375 8.609375 43.09375 21.1875 
z
M 22.90625 0.796875 
C 18.203125 0.796875 14.203125 3.59375 11.90625 7.5 
C 9.40625 11.984375 9.09375 17.59375 9.09375 22 
C 9.09375 26.203125 9.296875 31.40625 11.90625 35.90625 
C 13.90625 39.203125 17.796875 42.40625 22.90625 42.40625 
C 27.40625 42.40625 31.203125 39.90625 33.59375 36.40625 
C 36.703125 31.703125 36.703125 25.109375 36.703125 22 
C 36.703125 18.09375 36.5 12.109375 33.796875 7.296875 
C 31 2.703125 26.703125 0.796875 22.90625 0.796875 
z
" id="CMR17-111"/>
     <path d="M 30.90625 42.140625 
C 30.90625 43.953125 30.796875 44.046875 30.203125 44.046875 
C 29.796875 44.046875 29.703125 43.953125 28.5 42.453125 
C 28.203125 42.046875 27.296875 41.03125 27 40.640625 
C 23.796875 44.046875 19.296875 44.046875 17.59375 44.046875 
C 6.5 44.046875 2.5 38.234375 2.5 32.4375 
C 2.5 23.40625 12.703125 21.328125 15.59375 20.703125 
C 21.90625 19.421875 24.09375 19.015625 26.203125 17.203125 
C 27.5 16.015625 29.703125 13.8125 29.703125 10.21875 
C 29.703125 6 27.296875 0.59375 18.09375 0.59375 
C 9.40625 0.59375 6.296875 7.1875 4.5 15.953125 
C 4.203125 17.34375 4.203125 17.453125 3.40625 17.453125 
C 2.59375 17.453125 2.5 17.34375 2.5 15.359375 
L 2.5 0.984375 
C 2.5 -0.796875 2.59375 -0.90625 3.203125 -0.90625 
C 3.703125 -0.90625 3.796875 -0.796875 4.296875 0 
C 4.90625 0.890625 6.40625 3.296875 7 4.3125 
C 9 1.609375 12.5 -1 18.09375 -1 
C 28 -1 33.296875 4.421875 33.296875 12.25 
C 33.296875 17.375 30.59375 20.078125 29.296875 21.28125 
C 26.296875 24.390625 22.796875 25.09375 18.59375 25.890625 
C 13.09375 27.109375 6.09375 28.515625 6.09375 34.640625 
C 6.09375 37.234375 7.5 42.765625 17.59375 42.765625 
C 28.296875 42.765625 28.90625 32.71875 29.09375 29.5 
C 29.203125 29 29.703125 28.890625 30 28.890625 
C 30.90625 28.890625 30.90625 29.203125 30.90625 30.90625 
z
" id="CMR17-115"/>
     <path d="M 11.09375 18.1875 
C 13 16.6875 16.296875 15 20.296875 15 
C 28.203125 15 35 21.203125 35 29.5 
C 35 32.09375 34.203125 36.09375 31.203125 39.203125 
C 34 42.0625 38.09375 43 40.40625 43 
C 40.796875 43 41.40625 43 41.90625 42.71875 
C 41.5 42.625 40.59375 42.234375 40.59375 40.703125 
C 40.59375 39.484375 41.5 38.609375 42.796875 38.609375 
C 44.296875 38.609375 45.09375 39.578125 45.09375 40.84375 
C 45.09375 42.671875 43.59375 44.59375 40.40625 44.59375 
C 36.40625 44.59375 32.90625 42.78125 30.09375 40.3125 
C 27.09375 43.015625 23.5 44 20.296875 44 
C 12.40625 44 5.59375 37.796875 5.59375 29.5 
C 5.59375 23.78125 8.90625 20.1875 9.90625 19.1875 
C 6.90625 15.6875 6.90625 11.609375 6.90625 11.109375 
C 6.90625 8.515625 7.90625 4.71875 11.296875 2.625 
C 6.09375 1.328125 2 -2.640625 2 -7.59375 
C 2 -14.734375 11.5 -20 22.90625 -20 
C 33.90625 -20 43.796875 -14.9375 43.796875 -7.484375 
C 43.796875 6 29 6 21.296875 6 
C 19 6 14.90625 6 14.40625 6.109375 
C 11.296875 6.609375 9.203125 9.40625 9.203125 12.90625 
C 9.203125 13.796875 9.203125 16 11.09375 18.1875 
z
M 20.296875 16.6875 
C 11.5 16.6875 11.5 27.5 11.5 29.515625 
C 11.5 31.5 11.5 42.3125 20.296875 42.3125 
C 29.09375 42.3125 29.09375 31.5 29.09375 29.515625 
C 29.09375 27.5 29.09375 16.6875 20.296875 16.6875 
z
M 22.90625 -18.296875 
C 12.90625 -18.296875 6 -13.046875 6 -7.59375 
C 6 -4.515625 7.703125 -1.640625 9.90625 -0.0625 
C 12.40625 1.625 13.40625 1.625 20.203125 1.625 
C 28.40625 1.625 39.796875 1.625 39.796875 -7.59375 
C 39.796875 -13.046875 32.90625 -18.296875 22.90625 -18.296875 
z
" id="CMR17-103"/>
     <path d="M 41.5 30.203125 
C 41.5 35.296875 40.5 43.59375 28.703125 43.59375 
C 20.5 43.59375 16.5 37 15.296875 33.703125 
L 15.203125 33.703125 
L 15.203125 68.6875 
L 3.296875 67.59375 
L 3.296875 65 
C 9.203125 65 10.09375 64.40625 10.09375 59.640625 
L 10.09375 6.65625 
C 10.09375 2.875 9.703125 2.390625 3.296875 2.390625 
L 3.296875 -0.203125 
C 5.703125 0 10.09375 0 12.703125 0 
C 15.296875 0 19.796875 0 22.203125 -0.203125 
L 22.203125 2.390625 
C 15.796875 2.390625 15.40625 2.78125 15.40625 6.6875 
L 15.40625 25.90625 
C 15.40625 35.109375 21 42 28 42 
C 35.40625 42 36.203125 35.40625 36.203125 30.59375 
L 36.203125 6.6875 
C 36.203125 2.875 35.796875 2.390625 29.40625 2.390625 
L 29.40625 -0.203125 
C 31.796875 0 36.203125 0 38.796875 0 
C 41.40625 0 45.90625 0 48.296875 -0.203125 
L 48.296875 2.390625 
C 41.90625 2.390625 41.5 2.78125 41.5 6.6875 
z
" id="CMR17-104"/>
     <path d="M 20.90625 66 
C 20.296875 67.5 20.203125 67.5 18.09375 67.5 
L 5.296875 67.5 
L 5.296875 65 
C 12.203125 65 13.296875 65 13.296875 60.546875 
L 13.296875 9.53125 
C 13.296875 7.046875 13.296875 2.390625 5.296875 2.390625 
L 5.296875 -0.203125 
C 7.59375 0 11.796875 0 14.296875 0 
C 16.796875 0 21 0 23.296875 -0.203125 
L 23.296875 2.390625 
C 15.296875 2.390625 15.296875 7.046875 15.296875 9.53125 
L 15.296875 64.609375 
L 15.40625 64.609375 
L 38.90625 1.390625 
C 39.296875 0.390625 39.5 -0.203125 40.296875 -0.203125 
C 41.09375 -0.203125 41.296875 0.390625 41.703125 1.390625 
L 65.40625 65.09375 
L 65.5 65.09375 
L 65.5 6.84375 
C 65.5 2.390625 64.40625 2.390625 57.5 2.390625 
L 57.5 -0.203125 
C 60.203125 0 65.59375 0 68.5 0 
C 71.40625 0 76.90625 0 79.59375 -0.203125 
L 79.59375 2.390625 
C 72.703125 2.390625 71.59375 2.390625 71.59375 6.84375 
L 71.59375 60.546875 
C 71.59375 65 72.703125 65 79.59375 65 
L 79.59375 67.5 
L 66.90625 67.5 
C 64.796875 67.5 64.703125 67.40625 64.09375 65.90625 
L 42.5 7.84375 
z
" id="CMR17-77"/>
     <path d="M 62.09375 67.015625 
C 62.09375 68.796875 62 68.90625 61.40625 68.90625 
C 61 68.90625 60.90625 68.796875 60.203125 67.609375 
L 55.796875 59.25 
C 50.90625 65.421875 44.90625 69 37.203125 69 
C 20.09375 69 4.59375 54 4.59375 33.5625 
C 4.59375 12.90625 20.09375 -2 37.296875 -2 
C 52.59375 -2 62.09375 11.40625 62.09375 22.828125 
C 62.09375 23.8125 62.09375 24.21875 61.203125 24.21875 
C 60.40625 24.21875 60.40625 23.921875 60.296875 23.03125 
C 59.5 9.140625 49.5 0.59375 38.703125 0.59375 
C 28.5 0.59375 12.203125 7.734375 12.203125 33.546875 
C 12.203125 59.453125 28.796875 66.40625 38.5 66.40625 
C 49.796875 66.40625 58 56.6875 59.90625 42.890625 
C 60.09375 41.6875 60.09375 41.484375 61 41.484375 
C 62.09375 41.484375 62.09375 41.6875 62.09375 43.484375 
z
" id="CMR17-67"/>
    </defs>
    <g transform="translate(314.030769 420.228)scale(0.22 -0.22)">
     <use transform="scale(0.996264)" xlink:href="#CMR17-80"/>
     <use transform="translate(59.983847 0)scale(0.996264)" xlink:href="#CMR17-101"/>
     <use transform="translate(100.469507 0)scale(0.996264)" xlink:href="#CMR17-114"/>
     <use transform="translate(135.750275 0)scale(0.996264)" xlink:href="#CMR17-102"/>
     <use transform="translate(163.223787 0)scale(0.996264)" xlink:href="#CMR17-101"/>
     <use transform="translate(203.709448 0)scale(0.996264)" xlink:href="#CMR17-99"/>
     <use transform="translate(244.195108 0)scale(0.996264)" xlink:href="#CMR17-116"/>
     <use transform="translate(309.551842 0)scale(0.996264)" xlink:href="#CMR17-70"/>
     <use transform="translate(361.728434 0)scale(0.996264)" xlink:href="#CMR17-111"/>
     <use transform="translate(407.418911 0)scale(0.996264)" xlink:href="#CMR17-114"/>
     <use transform="translate(442.699678 0)scale(0.996264)" xlink:href="#CMR17-101"/>
     <use transform="translate(483.185339 0)scale(0.996264)" xlink:href="#CMR17-115"/>
     <use transform="translate(518.986677 0)scale(0.996264)" xlink:href="#CMR17-105"/>
     <use transform="translate(543.857735 0)scale(0.996264)" xlink:href="#CMR17-103"/>
     <use transform="translate(589.548212 0)scale(0.996264)" xlink:href="#CMR17-104"/>
     <use transform="translate(637.841128 0)scale(0.996264)" xlink:href="#CMR17-116"/>
     <use transform="translate(703.197862 0)scale(0.996264)" xlink:href="#CMR17-77"/>
     <use transform="translate(787.884803 0)scale(0.996264)" xlink:href="#CMR17-80"/>
     <use transform="translate(850.471103 0)scale(0.996264)" xlink:href="#CMR17-67"/>
    </g>
   </g>
  </g>
 </g>
 <defs>
  <clipPath id="pe72d48eff2">
   <rect height="489.24" width="669.6" x="108" y="77.76"/>
  </clipPath>
 </defs>
</svg>
